<svg width="32" height="32" viewBox="0 0 32 32" fill="none" xmlns="http://www.w3.org/2000/svg">
<path fill-rule="evenodd" clip-rule="evenodd" d="M16 5C14.8954 5 14 5.89543 14 7V14H7C5.89543 14 5 14.8954 5 16C5 17.1046 5.89543 18 7 18H14V25C14 26.1046 14.8954 27 16 27C17.1046 27 18 26.1046 18 25V18H25C26.1046 18 27 17.1046 27 16C27 14.8954 26.1046 14 25 14H18V7C18 5.89543 17.1046 5 16 5Z" fill="url(#paint0_linear_110_32)"/>
<defs>
<linearGradient id="paint0_linear_110_32" x1="16" y1="5" x2="16" y2="27" gradientUnits="userSpaceOnUse">
<stop offset="0.29" stop-color="#0180FE"/>
<stop offset="1" stop-color="#1924B8"/>
</linearGradient>
</defs>
</svg>
