<svg width="32" height="32" viewBox="0 0 32 32" fill="none" xmlns="http://www.w3.org/2000/svg">
<path fill-rule="evenodd" clip-rule="evenodd" d="M27.621 2.55806C27.7285 2.95959 27.4903 3.37232 27.0887 3.47991L5.3012 9.31786C4.89967 9.42545 4.48694 9.18716 4.37935 8.78563C4.27176 8.3841 4.51005 7.97138 4.91158 7.86379L26.6991 2.02583C27.1006 1.91824 27.5134 2.15653 27.621 2.55806Z" fill="url(#paint0_linear_12_716)"/>
<path fill-rule="evenodd" clip-rule="evenodd" d="M19.9117 3.217C20.0193 3.61853 19.781 4.03125 19.3795 4.13884L16.479 4.91602V10.6864C16.479 11.1021 16.142 11.4391 15.7263 11.4391C15.3107 11.4391 14.9737 11.1021 14.9737 10.6864L14.9737 5.31938L12.4628 5.99216C12.0613 6.09975 11.6486 5.86147 11.541 5.45993C11.4334 5.0584 11.6717 4.64568 12.0732 4.53809L18.9899 2.68477C19.3914 2.57718 19.8041 2.81547 19.9117 3.217Z" fill="url(#paint1_linear_12_716)"/>
<path fill-rule="evenodd" clip-rule="evenodd" d="M14.6386 10.2349C13.6297 10.2349 12.8118 11.0527 12.8118 12.0616V12.7411H9.40235C7.80024 12.7411 6.50146 14.0399 6.50146 15.642V26.8387C6.50146 28.5846 7.91682 29.9999 9.66274 29.9999H21.6731C23.4191 29.9999 24.8344 28.5846 24.8344 26.8387V15.642C24.8344 14.0399 23.5356 12.7411 21.9335 12.7411H18.5241V12.0616C18.5241 11.0527 17.7062 10.2349 16.6973 10.2349H14.6386ZM14.3172 12.7411H17.0187V12.0616C17.0187 11.8841 16.8748 11.7402 16.6973 11.7402H14.6386C14.4611 11.7402 14.3172 11.8841 14.3172 12.0616V12.7411ZM23.3286 15.6054C23.3092 14.8516 22.692 14.2465 21.9335 14.2465H9.40235C8.64387 14.2465 8.02672 14.8516 8.0073 15.6054H23.3286ZM23.329 17.1107H20.6275V23.4821H23.329V17.1107ZM23.329 24.9875H20.6275V25.8459C20.6275 26.8548 19.8096 27.6727 18.8007 27.6727H12.5351C11.5262 27.6727 10.7084 26.8548 10.7084 25.8459V24.9875H8.00683V26.8387C8.00683 27.7532 8.74821 28.4946 9.66274 28.4946H21.6731C22.5877 28.4946 23.329 27.7532 23.329 26.8387V24.9875ZM8.00683 23.4821H10.7084V17.1107H8.00683V23.4821ZM12.2137 25.8459C12.2137 26.0235 12.3576 26.1674 12.5351 26.1674H14.9153V17.1107H12.2137V25.8459ZM16.4206 17.1107V26.1674H18.8007C18.9782 26.1674 19.1221 26.0235 19.1221 25.8459V17.1107H16.4206Z" fill="url(#paint2_linear_12_716)"/>
<path d="M17.0187 12.7411H14.3172V12.0616C14.3172 11.8841 14.4611 11.7402 14.6386 11.7402H16.6973C16.8748 11.7402 17.0187 11.8841 17.0187 12.0616V12.7411Z" fill="url(#paint3_linear_12_716)"/>
<path d="M10.7084 23.4821H8.00683V17.1107H10.7084V23.4821Z" fill="url(#paint4_linear_12_716)"/>
<path d="M20.6275 17.1107H23.329V23.4821H20.6275V17.1107Z" fill="url(#paint5_linear_12_716)"/>
<defs>
<linearGradient id="paint0_linear_12_716" x1="16.0072" y1="0.931394" x2="16.0072" y2="30.0979" gradientUnits="userSpaceOnUse">
<stop stop-color="#0180FD"/>
<stop offset="1" stop-color="#1924BA"/>
</linearGradient>
<linearGradient id="paint1_linear_12_716" x1="15.7221" y1="0.0657326" x2="15.7221" y2="29.7742" gradientUnits="userSpaceOnUse">
<stop stop-color="#0180FD"/>
<stop offset="1" stop-color="#1924BA"/>
</linearGradient>
<linearGradient id="paint2_linear_12_716" x1="15.6605" y1="1.27004" x2="15.6679" y2="29.9999" gradientUnits="userSpaceOnUse">
<stop stop-color="#0180FD"/>
<stop offset="1" stop-color="#1924BA"/>
</linearGradient>
<linearGradient id="paint3_linear_12_716" x1="15.6605" y1="1.27004" x2="15.6679" y2="29.9999" gradientUnits="userSpaceOnUse">
<stop stop-color="#0180FD"/>
<stop offset="1" stop-color="#1924BA"/>
</linearGradient>
<linearGradient id="paint4_linear_12_716" x1="15.6605" y1="1.27004" x2="15.6679" y2="29.9999" gradientUnits="userSpaceOnUse">
<stop stop-color="#0180FD"/>
<stop offset="1" stop-color="#1924BA"/>
</linearGradient>
<linearGradient id="paint5_linear_12_716" x1="15.6605" y1="1.27004" x2="15.6679" y2="29.9999" gradientUnits="userSpaceOnUse">
<stop stop-color="#0180FD"/>
<stop offset="1" stop-color="#1924BA"/>
</linearGradient>
</defs>
</svg>
