<svg width="32" height="32" viewBox="0 0 32 32" fill="none" xmlns="http://www.w3.org/2000/svg">
<path fill-rule="evenodd" clip-rule="evenodd" d="M4.1377 24.8285C4.1377 23.6713 5.07582 22.7332 6.23305 22.7332H7.3671C8.52433 22.7332 9.46245 23.6713 9.46245 24.8285V26.6395C9.46245 27.7967 8.52433 28.7348 7.3671 28.7348H6.23305C5.07582 28.7348 4.1377 27.7967 4.1377 26.6395V24.8285ZM6.23305 24.2074C5.89002 24.2074 5.61194 24.4855 5.61194 24.8285V26.6395C5.61194 26.9825 5.89002 27.2606 6.23305 27.2606H7.3671C7.71013 27.2606 7.9882 26.9825 7.9882 26.6395V24.8285C7.9882 24.4855 7.71013 24.2074 7.3671 24.2074H6.23305Z" fill="url(#paint0_linear_12_738)"/>
<path fill-rule="evenodd" clip-rule="evenodd" d="M22.5347 24.8285C22.5347 23.6713 23.4728 22.7332 24.63 22.7332H25.7641C26.9213 22.7332 27.8594 23.6713 27.8594 24.8285V26.6395C27.8594 27.7967 26.9213 28.7348 25.7641 28.7348H24.63C23.4728 28.7348 22.5347 27.7967 22.5347 26.6395V24.8285ZM24.63 24.2074C24.287 24.2074 24.0089 24.4855 24.0089 24.8285V26.6395C24.0089 26.9825 24.287 27.2606 24.63 27.2606H25.7641C26.1071 27.2606 26.3852 26.9825 26.3852 26.6395V24.8285C26.3852 24.4855 26.1071 24.2074 25.7641 24.2074H24.63Z" fill="url(#paint1_linear_12_738)"/>
<path d="M5.61194 24.8285C5.61194 24.4855 5.89002 24.2074 6.23305 24.2074H7.3671C7.71013 24.2074 7.9882 24.4855 7.9882 24.8285V26.6395C7.9882 26.9825 7.71013 27.2606 7.3671 27.2606H6.23305C5.89002 27.2606 5.61194 26.9825 5.61194 26.6395V24.8285Z" fill="url(#paint2_linear_12_738)"/>
<path d="M24.0089 24.8285C24.0089 24.4855 24.287 24.2074 24.63 24.2074H25.7641C26.1071 24.2074 26.3852 24.4855 26.3852 24.8285V26.6395C26.3852 26.9825 26.1071 27.2606 25.7641 27.2606H24.63C24.287 27.2606 24.0089 26.9825 24.0089 26.6395V24.8285Z" fill="url(#paint3_linear_12_738)"/>
<path fill-rule="evenodd" clip-rule="evenodd" d="M2 10.5673C2 9.28508 3.03947 8.24561 4.32172 8.24561H6.42428C7.20759 8.24561 7.77719 8.98939 7.57301 9.74562L6.96182 12.0093C6.82166 12.5284 6.35078 12.889 5.81308 12.889H4.32172C3.03947 12.889 2 11.8496 2 10.5673ZM4.32172 9.71985C3.85367 9.71985 3.47425 10.0993 3.47425 10.5673C3.47425 11.0354 3.85367 11.4148 4.32172 11.4148H5.5953L6.05293 9.71985H4.32172Z" fill="url(#paint4_linear_12_738)"/>
<path d="M3.47425 10.5673C3.47425 10.0993 3.85367 9.71985 4.32172 9.71985H6.05293L5.5953 11.4148H4.32172C3.85367 11.4148 3.47425 11.0354 3.47425 10.5673Z" fill="url(#paint5_linear_12_738)"/>
<path fill-rule="evenodd" clip-rule="evenodd" d="M30 10.5673C30 9.28508 28.9605 8.24561 27.6783 8.24561H25.5757C24.7924 8.24561 24.2228 8.98939 24.427 9.74562L25.0382 12.0093C25.1783 12.5284 25.6492 12.889 26.1869 12.889H27.6783C28.9605 12.889 30 11.8496 30 10.5673ZM27.6783 9.71985C28.1463 9.71985 28.5258 10.0993 28.5258 10.5673C28.5258 11.0354 28.1463 11.4148 27.6783 11.4148H26.4047L25.9471 9.71985H27.6783Z" fill="url(#paint6_linear_12_738)"/>
<path d="M28.5258 10.5673C28.5258 10.0993 28.1463 9.71985 27.6783 9.71985H25.9471L26.4047 11.4148H27.6783C28.1463 11.4148 28.5258 11.0354 28.5258 10.5673Z" fill="url(#paint7_linear_12_738)"/>
<path fill-rule="evenodd" clip-rule="evenodd" d="M7.57973 4.95188C7.77477 3.97148 8.63519 3.26538 9.6348 3.26538H22.8076C23.8072 3.26538 24.6676 3.97148 24.8626 4.95189L26.0336 10.8375C26.1567 11.4562 25.995 12.0549 25.6487 12.5117C25.2695 13.0117 24.6691 13.3417 23.9785 13.3417H8.46388C7.74222 13.3417 7.11896 12.9814 6.74385 12.4432C6.43213 11.9959 6.29179 11.4257 6.40881 10.8375L7.57973 4.95188ZM9.6348 4.73963C9.3385 4.73963 9.08345 4.94893 9.02564 5.23954L7.85472 11.1252C7.77829 11.5093 8.0722 11.8675 8.46388 11.8675H23.9785C24.3702 11.8675 24.6641 11.5093 24.5877 11.1252L23.4167 5.23954C23.3589 4.94893 23.1039 4.73963 22.8076 4.73963H9.6348Z" fill="url(#paint8_linear_12_738)"/>
<path fill-rule="evenodd" clip-rule="evenodd" d="M7.78456 11.2868L6.74385 12.4432L5.48194 13.8453C5.03483 14.3421 4.66536 14.8964 4.38074 15.4894C4.15507 15.9596 3.98273 16.4541 3.86733 16.9637C3.75387 17.4646 3.69544 17.9799 3.69544 18.5009V19.1113V20.5856V22.1122C3.69544 22.4553 3.97352 22.7333 4.31654 22.7333H27.698C28.041 22.7333 28.3191 22.4553 28.3191 22.1122V20.5761V19.1208V18.2735C28.3191 17.8313 28.277 17.3929 28.1947 16.9637C28.0975 16.4563 27.9441 15.9618 27.7379 15.4894C27.4894 14.92 27.1641 14.3826 26.7676 13.8931L25.6487 12.5117L24.6329 11.2576L25.7785 10.3297L27.9132 12.9652C29.1296 14.467 29.7933 16.3409 29.7933 18.2735V22.1122C29.7933 23.2695 28.8552 24.2076 27.698 24.2076H4.31654C3.15931 24.2076 2.22119 23.2695 2.22119 22.1122V18.5009C2.22119 16.4174 2.99239 14.4077 4.38614 12.8591L6.68875 10.3006L7.78456 11.2868Z" fill="url(#paint9_linear_12_738)"/>
<path fill-rule="evenodd" clip-rule="evenodd" d="M2.86295 16.2265C2.86295 15.8194 3.19297 15.4894 3.60007 15.4894H4.38074H7.48648C9.06894 15.4894 10.3653 16.7143 10.4792 18.2677C10.9259 18.9334 11.6772 19.3377 12.4862 19.3377H19.3144C20.1234 19.3377 20.8748 18.9334 21.3214 18.2677C21.4353 16.7143 22.7317 15.4894 24.3141 15.4894H27.7379H28.2005C28.6077 15.4894 28.9377 15.8194 28.9377 16.2265C28.9377 16.6336 28.6077 16.9637 28.2005 16.9637H28.1947H24.3141C23.471 16.9637 22.7876 17.6471 22.7876 18.4902C22.7876 18.8333 23.0656 19.1113 23.4087 19.1113H28.2005C28.2409 19.1113 28.2805 19.1146 28.3191 19.1208C28.6698 19.1775 28.9377 19.4817 28.9377 19.8485C28.9377 20.2152 28.6698 20.5194 28.3191 20.5761C28.2805 20.5823 28.2409 20.5856 28.2005 20.5856H23.4087C22.7848 20.5856 22.2247 20.313 21.8408 19.8804C21.1469 20.4726 20.2549 20.812 19.3144 20.812H12.4862C11.5457 20.812 10.6537 20.4726 9.95977 19.8804C9.57593 20.313 9.01578 20.5856 8.39197 20.5856H3.69544H3.60007C3.19297 20.5856 2.86295 20.2556 2.86295 19.8485C2.86295 19.4414 3.19297 19.1113 3.60007 19.1113H3.69544H8.39197C8.73499 19.1113 9.01307 18.8333 9.01307 18.4902C9.01307 17.6471 8.32959 16.9637 7.48648 16.9637H3.86733H3.60007C3.19297 16.9637 2.86295 16.6336 2.86295 16.2265Z" fill="url(#paint10_linear_12_738)"/>
<path d="M23.9785 13.3417H8.46388C7.74222 13.3417 7.11896 12.9814 6.74385 12.4432L5.48194 13.8453C5.03483 14.3421 4.66536 14.8964 4.38074 15.4894H7.48648C9.06894 15.4894 10.3653 16.7143 10.4792 18.2677C10.9259 18.9334 11.6772 19.3377 12.4862 19.3377H19.3144C20.1234 19.3377 20.8748 18.9334 21.3214 18.2677C21.4353 16.7143 22.7317 15.4894 24.3141 15.4894H27.7379C27.4894 14.92 27.1641 14.3826 26.7676 13.8931L25.6487 12.5117C25.2695 13.0117 24.6691 13.3417 23.9785 13.3417Z" fill="url(#paint11_linear_12_738)"/>
<path fill-rule="evenodd" clip-rule="evenodd" d="M17.9104 5.87633C18.1258 6.2218 18.0203 6.67645 17.6748 6.89181L12.3269 10.2256C11.9814 10.441 11.5268 10.3355 11.3114 9.99005C11.096 9.64458 11.2015 9.18994 11.547 8.97457L16.8949 5.64074C17.2404 5.42538 17.695 5.53085 17.9104 5.87633ZM20.6908 7.54238C20.9066 7.88755 20.8018 8.34234 20.4566 8.55818L16.6061 10.9659C16.2609 11.1818 15.8061 11.0769 15.5903 10.7318C15.3744 10.3866 15.4793 9.93181 15.8245 9.71596L19.675 7.3082C20.0201 7.09236 20.4749 7.1972 20.6908 7.54238Z" fill="url(#paint12_linear_12_738)"/>
<defs>
<linearGradient id="paint0_linear_12_738" x1="16.0054" y1="3.22115" x2="15.9986" y2="28.7348" gradientUnits="userSpaceOnUse">
<stop stop-color="#0180FD"/>
<stop offset="1" stop-color="#1924BA"/>
</linearGradient>
<linearGradient id="paint1_linear_12_738" x1="16.0054" y1="3.22115" x2="15.9986" y2="28.7348" gradientUnits="userSpaceOnUse">
<stop stop-color="#0180FD"/>
<stop offset="1" stop-color="#1924BA"/>
</linearGradient>
<linearGradient id="paint2_linear_12_738" x1="16.0054" y1="3.22115" x2="15.9986" y2="28.7348" gradientUnits="userSpaceOnUse">
<stop stop-color="#0180FD"/>
<stop offset="1" stop-color="#1924BA"/>
</linearGradient>
<linearGradient id="paint3_linear_12_738" x1="16.0054" y1="3.22115" x2="15.9986" y2="28.7348" gradientUnits="userSpaceOnUse">
<stop stop-color="#0180FD"/>
<stop offset="1" stop-color="#1924BA"/>
</linearGradient>
<linearGradient id="paint4_linear_12_738" x1="16.0053" y1="3.22119" x2="16.0053" y2="28.8289" gradientUnits="userSpaceOnUse">
<stop stop-color="#0180FD"/>
<stop offset="1" stop-color="#1924BA"/>
</linearGradient>
<linearGradient id="paint5_linear_12_738" x1="16.0053" y1="3.22119" x2="16.0053" y2="28.8289" gradientUnits="userSpaceOnUse">
<stop stop-color="#0180FD"/>
<stop offset="1" stop-color="#1924BA"/>
</linearGradient>
<linearGradient id="paint6_linear_12_738" x1="16.0053" y1="3.22119" x2="16.0053" y2="28.8289" gradientUnits="userSpaceOnUse">
<stop stop-color="#0180FD"/>
<stop offset="1" stop-color="#1924BA"/>
</linearGradient>
<linearGradient id="paint7_linear_12_738" x1="16.0053" y1="3.22119" x2="16.0053" y2="28.8289" gradientUnits="userSpaceOnUse">
<stop stop-color="#0180FD"/>
<stop offset="1" stop-color="#1924BA"/>
</linearGradient>
<linearGradient id="paint8_linear_12_738" x1="16.0073" y1="3.26538" x2="16.0054" y2="28.6077" gradientUnits="userSpaceOnUse">
<stop stop-color="#0180FD"/>
<stop offset="1" stop-color="#1924BA"/>
</linearGradient>
<linearGradient id="paint9_linear_12_738" x1="16.0073" y1="3.26538" x2="16.0054" y2="28.6077" gradientUnits="userSpaceOnUse">
<stop stop-color="#0180FD"/>
<stop offset="1" stop-color="#1924BA"/>
</linearGradient>
<linearGradient id="paint10_linear_12_738" x1="16.0073" y1="3.26538" x2="16.0054" y2="28.6077" gradientUnits="userSpaceOnUse">
<stop stop-color="#0180FD"/>
<stop offset="1" stop-color="#1924BA"/>
</linearGradient>
<linearGradient id="paint11_linear_12_738" x1="16.0073" y1="3.26538" x2="16.0054" y2="28.6077" gradientUnits="userSpaceOnUse">
<stop stop-color="#0180FD"/>
<stop offset="1" stop-color="#1924BA"/>
</linearGradient>
<linearGradient id="paint12_linear_12_738" x1="16.0058" y1="3.29489" x2="16.0058" y2="28.3939" gradientUnits="userSpaceOnUse">
<stop stop-color="#0180FD"/>
<stop offset="1" stop-color="#1924BA"/>
</linearGradient>
</defs>
</svg>
