<svg width="32" height="32" viewBox="0 0 32 32" fill="none" xmlns="http://www.w3.org/2000/svg">
<path fill-rule="evenodd" clip-rule="evenodd" d="M2 9.81393C2 8.46533 3.09326 7.37207 4.44186 7.37207H27.5581C28.9067 7.37207 30 8.46533 30 9.81393V22.186C30 23.5346 28.9067 24.6279 27.5581 24.6279H4.44186C3.09326 24.6279 2 23.5346 2 22.186V9.81393ZM4.44186 8.99998C3.99233 8.99998 3.62791 9.3644 3.62791 9.81393V22.186C3.62791 22.6356 3.99233 23 4.44186 23H27.5581C28.0077 23 28.3721 22.6356 28.3721 22.186V9.81393C28.3721 9.3644 28.0077 8.99998 27.5581 8.99998H4.44186Z" fill="black"/>
<path fill-rule="evenodd" clip-rule="evenodd" d="M2 9.81393C2 8.46533 3.09326 7.37207 4.44186 7.37207H27.5581C28.9067 7.37207 30 8.46533 30 9.81393V22.186C30 23.5346 28.9067 24.6279 27.5581 24.6279H4.44186C3.09326 24.6279 2 23.5346 2 22.186V9.81393ZM4.44186 8.99998C3.99233 8.99998 3.62791 9.3644 3.62791 9.81393V22.186C3.62791 22.6356 3.99233 23 4.44186 23H27.5581C28.0077 23 28.3721 22.6356 28.3721 22.186V9.81393C28.3721 9.3644 28.0077 8.99998 27.5581 8.99998H4.44186Z" fill="url(#paint0_linear_12_685)"/>
<path fill-rule="evenodd" clip-rule="evenodd" d="M4.60465 11.0571C4.60465 10.4604 5.08833 9.97672 5.68499 9.97672H11.0127C11.6093 9.97672 12.093 10.4604 12.093 11.0571V15.0824C12.093 15.6791 11.6093 16.1628 11.0127 16.1628H5.68499C5.08834 16.1628 4.60465 15.6791 4.60465 15.0824V11.0571ZM6.23256 11.6046V12.2558H7.2093C7.65884 12.2558 8.02326 12.6202 8.02326 13.0697C8.02326 13.5193 7.65884 13.8837 7.2093 13.8837H6.23256V14.5349H10.4651V13.8837H9.32558C8.87605 13.8837 8.51163 13.5193 8.51163 13.0697C8.51163 12.6202 8.87605 12.2558 9.32558 12.2558H10.4651V11.6046H6.23256Z" fill="black"/>
<path fill-rule="evenodd" clip-rule="evenodd" d="M4.60465 11.0571C4.60465 10.4604 5.08833 9.97672 5.68499 9.97672H11.0127C11.6093 9.97672 12.093 10.4604 12.093 11.0571V15.0824C12.093 15.6791 11.6093 16.1628 11.0127 16.1628H5.68499C5.08834 16.1628 4.60465 15.6791 4.60465 15.0824V11.0571ZM6.23256 11.6046V12.2558H7.2093C7.65884 12.2558 8.02326 12.6202 8.02326 13.0697C8.02326 13.5193 7.65884 13.8837 7.2093 13.8837H6.23256V14.5349H10.4651V13.8837H9.32558C8.87605 13.8837 8.51163 13.5193 8.51163 13.0697C8.51163 12.6202 8.87605 12.2558 9.32558 12.2558H10.4651V11.6046H6.23256Z" fill="url(#paint1_linear_12_685)"/>
<path d="M4.76744 21.3721C4.76744 20.9225 5.13186 20.5581 5.5814 20.5581H10.1395C10.5891 20.5581 10.9535 20.9225 10.9535 21.3721C10.9535 21.8216 10.5891 22.186 10.1395 22.186H5.5814C5.13186 22.186 4.76744 21.8216 4.76744 21.3721Z" fill="black"/>
<path d="M4.76744 21.3721C4.76744 20.9225 5.13186 20.5581 5.5814 20.5581H10.1395C10.5891 20.5581 10.9535 20.9225 10.9535 21.3721C10.9535 21.8216 10.5891 22.186 10.1395 22.186H5.5814C5.13186 22.186 4.76744 21.8216 4.76744 21.3721Z" fill="url(#paint2_linear_12_685)"/>
<path fill-rule="evenodd" clip-rule="evenodd" d="M4.60465 18.6046C4.60465 18.1551 4.96907 17.7907 5.4186 17.7907H6.82946C7.27899 17.7907 7.64341 18.1551 7.64341 18.6046C7.64341 19.0542 7.27899 19.4186 6.82946 19.4186H5.4186C4.96907 19.4186 4.60465 19.0542 4.60465 18.6046ZM8.83721 18.6046C8.83721 18.1551 9.20163 17.7907 9.65116 17.7907H12.4729C12.9224 17.7907 13.2868 18.1551 13.2868 18.6046C13.2868 19.0542 12.9224 19.4186 12.4729 19.4186H9.65116C9.20163 19.4186 8.83721 19.0542 8.83721 18.6046ZM14.4806 18.6046C14.4806 18.1551 14.845 17.7907 15.2946 17.7907H18.1163C18.5658 17.7907 18.9302 18.1551 18.9302 18.6046C18.9302 19.0542 18.5658 19.4186 18.1163 19.4186H15.2946C14.845 19.4186 14.4806 19.0542 14.4806 18.6046ZM20.124 18.6046C20.124 18.1551 20.4885 17.7907 20.938 17.7907H22.3488C22.7984 17.7907 23.1628 18.1551 23.1628 18.6046C23.1628 19.0542 22.7984 19.4186 22.3488 19.4186H20.938C20.4885 19.4186 20.124 19.0542 20.124 18.6046Z" fill="black"/>
<path fill-rule="evenodd" clip-rule="evenodd" d="M4.60465 18.6046C4.60465 18.1551 4.96907 17.7907 5.4186 17.7907H6.82946C7.27899 17.7907 7.64341 18.1551 7.64341 18.6046C7.64341 19.0542 7.27899 19.4186 6.82946 19.4186H5.4186C4.96907 19.4186 4.60465 19.0542 4.60465 18.6046ZM8.83721 18.6046C8.83721 18.1551 9.20163 17.7907 9.65116 17.7907H12.4729C12.9224 17.7907 13.2868 18.1551 13.2868 18.6046C13.2868 19.0542 12.9224 19.4186 12.4729 19.4186H9.65116C9.20163 19.4186 8.83721 19.0542 8.83721 18.6046ZM14.4806 18.6046C14.4806 18.1551 14.845 17.7907 15.2946 17.7907H18.1163C18.5658 17.7907 18.9302 18.1551 18.9302 18.6046C18.9302 19.0542 18.5658 19.4186 18.1163 19.4186H15.2946C14.845 19.4186 14.4806 19.0542 14.4806 18.6046ZM20.124 18.6046C20.124 18.1551 20.4885 17.7907 20.938 17.7907H22.3488C22.7984 17.7907 23.1628 18.1551 23.1628 18.6046C23.1628 19.0542 22.7984 19.4186 22.3488 19.4186H20.938C20.4885 19.4186 20.124 19.0542 20.124 18.6046Z" fill="url(#paint3_linear_12_685)"/>
<path fill-rule="evenodd" clip-rule="evenodd" d="M15.186 10.3023C15.6356 10.3023 16 10.6667 16 11.1163V13.0697C16 13.5193 15.6356 13.8837 15.186 13.8837C14.7365 13.8837 14.3721 13.5193 14.3721 13.0697V11.1163C14.3721 10.6667 14.7365 10.3023 15.186 10.3023ZM18.4419 10.3023C18.8914 10.3023 19.2558 10.6667 19.2558 11.1163V13.0697C19.2558 13.5193 18.8914 13.8837 18.4419 13.8837C17.9923 13.8837 17.6279 13.5193 17.6279 13.0697V11.1163C17.6279 10.6667 17.9923 10.3023 18.4419 10.3023ZM21.6977 10.3023C22.1472 10.3023 22.5116 10.6667 22.5116 11.1163V13.0697C22.5116 13.5193 22.1472 13.8837 21.6977 13.8837C21.2481 13.8837 20.8837 13.5193 20.8837 13.0697V11.1163C20.8837 10.6667 21.2481 10.3023 21.6977 10.3023ZM24.9535 10.3023C25.403 10.3023 25.7674 10.6667 25.7674 11.1163V13.0697C25.7674 13.5193 25.403 13.8837 24.9535 13.8837C24.504 13.8837 24.1395 13.5193 24.1395 13.0697V11.1163C24.1395 10.6667 24.504 10.3023 24.9535 10.3023Z" fill="black"/>
<path fill-rule="evenodd" clip-rule="evenodd" d="M15.186 10.3023C15.6356 10.3023 16 10.6667 16 11.1163V13.0697C16 13.5193 15.6356 13.8837 15.186 13.8837C14.7365 13.8837 14.3721 13.5193 14.3721 13.0697V11.1163C14.3721 10.6667 14.7365 10.3023 15.186 10.3023ZM18.4419 10.3023C18.8914 10.3023 19.2558 10.6667 19.2558 11.1163V13.0697C19.2558 13.5193 18.8914 13.8837 18.4419 13.8837C17.9923 13.8837 17.6279 13.5193 17.6279 13.0697V11.1163C17.6279 10.6667 17.9923 10.3023 18.4419 10.3023ZM21.6977 10.3023C22.1472 10.3023 22.5116 10.6667 22.5116 11.1163V13.0697C22.5116 13.5193 22.1472 13.8837 21.6977 13.8837C21.2481 13.8837 20.8837 13.5193 20.8837 13.0697V11.1163C20.8837 10.6667 21.2481 10.3023 21.6977 10.3023ZM24.9535 10.3023C25.403 10.3023 25.7674 10.6667 25.7674 11.1163V13.0697C25.7674 13.5193 25.403 13.8837 24.9535 13.8837C24.504 13.8837 24.1395 13.5193 24.1395 13.0697V11.1163C24.1395 10.6667 24.504 10.3023 24.9535 10.3023Z" fill="url(#paint4_linear_12_685)"/>
<path d="M6.23256 11.6046V12.2558H7.2093C7.65884 12.2558 8.02326 12.6202 8.02326 13.0697C8.02326 13.5193 7.65884 13.8837 7.2093 13.8837H6.23256V14.5349H10.4651V13.8837H9.32558C8.87605 13.8837 8.51163 13.5193 8.51163 13.0697C8.51163 12.6202 8.87605 12.2558 9.32558 12.2558H10.4651V11.6046H6.23256Z" fill="black"/>
<path d="M6.23256 11.6046V12.2558H7.2093C7.65884 12.2558 8.02326 12.6202 8.02326 13.0697C8.02326 13.5193 7.65884 13.8837 7.2093 13.8837H6.23256V14.5349H10.4651V13.8837H9.32558C8.87605 13.8837 8.51163 13.5193 8.51163 13.0697C8.51163 12.6202 8.87605 12.2558 9.32558 12.2558H10.4651V11.6046H6.23256Z" fill="url(#paint5_linear_12_685)"/>
<defs>
<linearGradient id="paint0_linear_12_685" x1="16" y1="7.37207" x2="16" y2="24.6279" gradientUnits="userSpaceOnUse">
<stop stop-color="#0180FD"/>
<stop offset="1" stop-color="#1924BA"/>
</linearGradient>
<linearGradient id="paint1_linear_12_685" x1="16" y1="7.37207" x2="16" y2="24.6279" gradientUnits="userSpaceOnUse">
<stop stop-color="#0180FD"/>
<stop offset="1" stop-color="#1924BA"/>
</linearGradient>
<linearGradient id="paint2_linear_12_685" x1="16" y1="7.37207" x2="16" y2="24.6279" gradientUnits="userSpaceOnUse">
<stop stop-color="#0180FD"/>
<stop offset="1" stop-color="#1924BA"/>
</linearGradient>
<linearGradient id="paint3_linear_12_685" x1="16" y1="7.37207" x2="16" y2="24.6279" gradientUnits="userSpaceOnUse">
<stop stop-color="#0180FD"/>
<stop offset="1" stop-color="#1924BA"/>
</linearGradient>
<linearGradient id="paint4_linear_12_685" x1="16" y1="7.37207" x2="16" y2="24.6279" gradientUnits="userSpaceOnUse">
<stop stop-color="#0180FD"/>
<stop offset="1" stop-color="#1924BA"/>
</linearGradient>
<linearGradient id="paint5_linear_12_685" x1="16" y1="7.37207" x2="16" y2="24.6279" gradientUnits="userSpaceOnUse">
<stop stop-color="#0180FD"/>
<stop offset="1" stop-color="#1924BA"/>
</linearGradient>
</defs>
</svg>
