<svg width="32" height="32" viewBox="0 0 32 32" fill="none" xmlns="http://www.w3.org/2000/svg">
<path fill-rule="evenodd" clip-rule="evenodd" d="M7.65926 14.6858C5.34763 14.6858 3.47369 16.5598 3.47369 18.8714C3.47369 21.183 5.34763 23.057 7.65926 23.057C9.97088 23.057 11.8448 21.183 11.8448 18.8714C11.8448 16.5598 9.97088 14.6858 7.65926 14.6858ZM2 18.8714C2 15.7459 4.53374 13.2122 7.65926 13.2122C10.7848 13.2122 13.3185 15.7459 13.3185 18.8714C13.3185 21.9969 10.7848 24.5307 7.65926 24.5307C4.53374 24.5307 2 21.9969 2 18.8714Z" fill="url(#paint0_linear_12_660)"/>
<path fill-rule="evenodd" clip-rule="evenodd" d="M24.3407 14.6858C22.0291 14.6858 20.1552 16.5598 20.1552 18.8714C20.1552 21.183 22.0291 23.057 24.3407 23.057C26.6524 23.057 28.5263 21.183 28.5263 18.8714C28.5263 16.5598 26.6524 14.6858 24.3407 14.6858ZM18.6815 18.8714C18.6815 15.7459 21.2152 13.2122 24.3407 13.2122C27.4663 13.2122 30 15.7459 30 18.8714C30 21.9969 27.4663 24.5307 24.3407 24.5307C21.2152 24.5307 18.6815 21.9969 18.6815 18.8714Z" fill="url(#paint1_linear_12_660)"/>
<path fill-rule="evenodd" clip-rule="evenodd" d="M19.8657 8.6005C19.6701 8.04873 20.0793 7.46948 20.6647 7.46948H23.8132C24.7546 7.46948 25.5178 8.23266 25.5178 9.1741C25.5178 10.1155 24.7546 10.8787 23.8132 10.8787H23.6991C23.2922 10.8787 22.9623 10.5488 22.9623 10.1419C22.9623 9.73492 23.2922 9.40502 23.6991 9.40502H23.8132C23.9407 9.40502 24.0441 9.30163 24.0441 9.1741C24.0441 9.04656 23.9407 8.94317 23.8132 8.94317H21.5507L24.9831 18.6254C25.1191 19.0089 24.9183 19.4301 24.5348 19.566C24.1512 19.702 23.7301 19.5013 23.5941 19.1178L21.3196 12.7019L16.6651 19.6084H6.29153C5.88458 19.6084 5.55469 19.2785 5.55469 18.8716C5.55469 18.4646 5.88458 18.1347 6.29153 18.1347H7.56484L12.426 10.9772L11.9785 9.76357H10.8286C10.4217 9.76357 10.0918 9.43367 10.0918 9.02673C10.0918 8.61978 10.4217 8.28988 10.8286 8.28988H15.2144C15.6214 8.28988 15.9513 8.61978 15.9513 9.02673C15.9513 9.43367 15.6214 9.76357 15.2144 9.76357H13.5492L13.762 10.3409H20.4826L19.8657 8.6005ZM20.1405 11.8146H14.3247L16.4499 17.2907L20.1405 11.8146ZM15.1967 18.1347L13.0693 12.6529L9.34627 18.1347H15.1967Z" fill="url(#paint2_linear_12_660)"/>
<defs>
<linearGradient id="paint0_linear_12_660" x1="23.899" y1="6.12097" x2="24.3407" y2="24.5307" gradientUnits="userSpaceOnUse">
<stop stop-color="#0180FD"/>
<stop offset="1" stop-color="#1924BA"/>
</linearGradient>
<linearGradient id="paint1_linear_12_660" x1="23.899" y1="6.12097" x2="24.3407" y2="24.5307" gradientUnits="userSpaceOnUse">
<stop stop-color="#0180FD"/>
<stop offset="1" stop-color="#1924BA"/>
</linearGradient>
<linearGradient id="paint2_linear_12_660" x1="15.5362" y1="7.46948" x2="15.5428" y2="24.0189" gradientUnits="userSpaceOnUse">
<stop stop-color="#0180FD"/>
<stop offset="1" stop-color="#1924BA"/>
</linearGradient>
</defs>
</svg>
