<svg width="32" height="32" viewBox="0 0 32 32" fill="none" xmlns="http://www.w3.org/2000/svg">
<path fill-rule="evenodd" clip-rule="evenodd" d="M10.732 7.70592C10.7317 7.70589 10.7331 7.70364 10.7369 7.69924C10.7341 7.70374 10.7322 7.70594 10.732 7.70592ZM10.8994 7.57738C11.0701 7.47462 11.3383 7.36043 11.7119 7.2537C12.5375 7.01781 13.7196 6.86234 15.0548 6.86234V5.43224C13.6256 5.43224 12.305 5.59691 11.319 5.87862C10.8309 6.01808 10.3839 6.1976 10.0425 6.4282C9.72609 6.64195 9.33438 7.01705 9.33438 7.57739C9.33438 7.63919 9.33944 7.70031 9.34925 7.76038C9.4315 8.26414 9.81822 8.59093 10.1356 8.7866C10.4806 8.99937 10.9218 9.16807 11.4059 9.30044C12.3809 9.56706 13.6659 9.72254 15.0548 9.72254C16.4436 9.72254 17.7287 9.56706 18.7037 9.30044C19.1878 9.16807 19.6289 8.99937 19.974 8.7866C20.2914 8.59093 20.6781 8.26414 20.7603 7.76038C20.7701 7.70032 20.7752 7.6392 20.7752 7.57739L19.3508 7.51947C19.3599 7.47318 19.3749 7.45195 19.3749 7.45193C19.3748 7.45189 19.3444 7.49472 19.2234 7.56931C19.0389 7.68307 18.7413 7.80756 18.3265 7.92098C17.5038 8.14594 16.3508 8.29244 15.0548 8.29244C13.7588 8.29244 12.6058 8.14594 11.7831 7.92098C11.3781 7.81023 11.0848 7.68894 10.8994 7.57738Z" fill="black"/>
<path fill-rule="evenodd" clip-rule="evenodd" d="M10.732 7.70592C10.7317 7.70589 10.7331 7.70364 10.7369 7.69924C10.7341 7.70374 10.7322 7.70594 10.732 7.70592ZM10.8994 7.57738C11.0701 7.47462 11.3383 7.36043 11.7119 7.2537C12.5375 7.01781 13.7196 6.86234 15.0548 6.86234V5.43224C13.6256 5.43224 12.305 5.59691 11.319 5.87862C10.8309 6.01808 10.3839 6.1976 10.0425 6.4282C9.72609 6.64195 9.33438 7.01705 9.33438 7.57739C9.33438 7.63919 9.33944 7.70031 9.34925 7.76038C9.4315 8.26414 9.81822 8.59093 10.1356 8.7866C10.4806 8.99937 10.9218 9.16807 11.4059 9.30044C12.3809 9.56706 13.6659 9.72254 15.0548 9.72254C16.4436 9.72254 17.7287 9.56706 18.7037 9.30044C19.1878 9.16807 19.6289 8.99937 19.974 8.7866C20.2914 8.59093 20.6781 8.26414 20.7603 7.76038C20.7701 7.70032 20.7752 7.6392 20.7752 7.57739L19.3508 7.51947C19.3599 7.47318 19.3749 7.45195 19.3749 7.45193C19.3748 7.45189 19.3444 7.49472 19.2234 7.56931C19.0389 7.68307 18.7413 7.80756 18.3265 7.92098C17.5038 8.14594 16.3508 8.29244 15.0548 8.29244C13.7588 8.29244 12.6058 8.14594 11.7831 7.92098C11.3781 7.81023 11.0848 7.68894 10.8994 7.57738Z" fill="url(#paint0_linear_12_639)"/>
<path fill-rule="evenodd" clip-rule="evenodd" d="M13.1035 14.1543C13.1359 14.1478 13.1708 14.1412 13.2083 14.1346C13.6239 14.0618 14.2264 14.0128 14.9114 14.0128C15.5965 14.0128 16.199 14.0618 16.6145 14.1346C16.652 14.1412 16.687 14.1478 16.7194 14.1543L16.4215 16.3951C16.3209 17.1522 15.6752 17.7177 14.9114 17.7177C14.1477 17.7177 13.502 17.1522 13.4013 16.3951L13.1035 14.1543ZM12.9616 12.7259C13.4809 12.635 14.1699 12.5827 14.9114 12.5827C15.653 12.5827 16.3419 12.635 16.8612 12.7259C17.1151 12.7704 17.3634 12.8299 17.565 12.9134C17.6626 12.9538 17.791 13.0165 17.9069 13.1157C18.0175 13.2103 18.2095 13.4214 18.2095 13.7501V13.7974L17.8392 16.5835C17.6441 18.0513 16.3922 19.1478 14.9114 19.1478C13.4307 19.1478 12.1788 18.0513 11.9837 16.5835L11.6134 13.7974V13.7501C11.6134 13.4214 11.8054 13.2103 11.916 13.1157C12.0318 13.0165 12.1602 12.9538 12.2579 12.9134C12.4594 12.8299 12.7078 12.7704 12.9616 12.7259Z" fill="black"/>
<path fill-rule="evenodd" clip-rule="evenodd" d="M13.1035 14.1543C13.1359 14.1478 13.1708 14.1412 13.2083 14.1346C13.6239 14.0618 14.2264 14.0128 14.9114 14.0128C15.5965 14.0128 16.199 14.0618 16.6145 14.1346C16.652 14.1412 16.687 14.1478 16.7194 14.1543L16.4215 16.3951C16.3209 17.1522 15.6752 17.7177 14.9114 17.7177C14.1477 17.7177 13.502 17.1522 13.4013 16.3951L13.1035 14.1543ZM12.9616 12.7259C13.4809 12.635 14.1699 12.5827 14.9114 12.5827C15.653 12.5827 16.3419 12.635 16.8612 12.7259C17.1151 12.7704 17.3634 12.8299 17.565 12.9134C17.6626 12.9538 17.791 13.0165 17.9069 13.1157C18.0175 13.2103 18.2095 13.4214 18.2095 13.7501V13.7974L17.8392 16.5835C17.6441 18.0513 16.3922 19.1478 14.9114 19.1478C13.4307 19.1478 12.1788 18.0513 11.9837 16.5835L11.6134 13.7974V13.7501C11.6134 13.4214 11.8054 13.2103 11.916 13.1157C12.0318 13.0165 12.1602 12.9538 12.2579 12.9134C12.4594 12.8299 12.7078 12.7704 12.9616 12.7259Z" fill="url(#paint1_linear_12_639)"/>
<path d="M13.1035 14.1543C13.1359 14.1478 13.1708 14.1412 13.2083 14.1346C13.6239 14.0618 14.2264 14.0128 14.9114 14.0128C15.5965 14.0128 16.199 14.0618 16.6145 14.1346C16.652 14.1412 16.687 14.1478 16.7194 14.1543L16.4215 16.3951C16.3209 17.1522 15.6752 17.7177 14.9114 17.7177C14.1477 17.7177 13.502 17.1522 13.4013 16.3951L13.1035 14.1543Z" fill="black"/>
<path d="M13.1035 14.1543C13.1359 14.1478 13.1708 14.1412 13.2083 14.1346C13.6239 14.0618 14.2264 14.0128 14.9114 14.0128C15.5965 14.0128 16.199 14.0618 16.6145 14.1346C16.652 14.1412 16.687 14.1478 16.7194 14.1543L16.4215 16.3951C16.3209 17.1522 15.6752 17.7177 14.9114 17.7177C14.1477 17.7177 13.502 17.1522 13.4013 16.3951L13.1035 14.1543Z" fill="url(#paint2_linear_12_639)"/>
<path fill-rule="evenodd" clip-rule="evenodd" d="M21.4998 3.61324L20.1803 6.19466L18.516 3.82108C19.0501 3.57025 19.6464 3.4301 20.2766 3.4301C20.703 3.4301 21.1137 3.49424 21.4998 3.61324ZM17.3457 4.64306L19.1095 7.15845L16.1291 7.98323C16.1285 7.93222 16.1287 7.86866 16.1289 7.78385C16.1291 7.72588 16.1293 7.65799 16.1293 7.57739C16.1293 6.43168 16.5935 5.39432 17.3457 4.64306ZM21.7823 8.11908L24.4177 7.8069C24.3723 8.64019 24.0813 9.40757 23.615 10.0387L21.7823 8.11908ZM22.5807 11.0264C22.1101 11.3415 21.5717 11.5627 20.9917 11.6634V9.36189L22.5807 11.0264ZM21.5232 6.70968L22.7728 4.26503C23.4695 4.79099 23.9946 5.53123 24.2505 6.3866L21.5232 6.70968ZM19.5616 8.5172V13.1548H20.2766C21.77 13.1548 23.1275 12.5669 24.128 11.6115C25.1906 10.5968 25.854 9.16395 25.854 7.57739C25.854 7.35599 25.8411 7.13731 25.8158 6.92212C25.5947 5.03533 24.4335 3.43894 22.8161 2.61052C22.0536 2.22 21.1898 2 20.2766 2C19.0858 2 17.9803 2.37397 17.0737 3.01083C15.6392 4.01861 14.6992 5.68819 14.6992 7.57739C14.6992 7.62804 14.6989 7.67775 14.6987 7.72657C14.6975 7.95309 14.6963 8.16025 14.7227 8.35096C14.7592 8.61547 14.8433 8.84423 14.965 9.13807L15.2069 9.72228L19.5616 8.5172Z" fill="black"/>
<path fill-rule="evenodd" clip-rule="evenodd" d="M21.4998 3.61324L20.1803 6.19466L18.516 3.82108C19.0501 3.57025 19.6464 3.4301 20.2766 3.4301C20.703 3.4301 21.1137 3.49424 21.4998 3.61324ZM17.3457 4.64306L19.1095 7.15845L16.1291 7.98323C16.1285 7.93222 16.1287 7.86866 16.1289 7.78385C16.1291 7.72588 16.1293 7.65799 16.1293 7.57739C16.1293 6.43168 16.5935 5.39432 17.3457 4.64306ZM21.7823 8.11908L24.4177 7.8069C24.3723 8.64019 24.0813 9.40757 23.615 10.0387L21.7823 8.11908ZM22.5807 11.0264C22.1101 11.3415 21.5717 11.5627 20.9917 11.6634V9.36189L22.5807 11.0264ZM21.5232 6.70968L22.7728 4.26503C23.4695 4.79099 23.9946 5.53123 24.2505 6.3866L21.5232 6.70968ZM19.5616 8.5172V13.1548H20.2766C21.77 13.1548 23.1275 12.5669 24.128 11.6115C25.1906 10.5968 25.854 9.16395 25.854 7.57739C25.854 7.35599 25.8411 7.13731 25.8158 6.92212C25.5947 5.03533 24.4335 3.43894 22.8161 2.61052C22.0536 2.22 21.1898 2 20.2766 2C19.0858 2 17.9803 2.37397 17.0737 3.01083C15.6392 4.01861 14.6992 5.68819 14.6992 7.57739C14.6992 7.62804 14.6989 7.67775 14.6987 7.72657C14.6975 7.95309 14.6963 8.16025 14.7227 8.35096C14.7592 8.61547 14.8433 8.84423 14.965 9.13807L15.2069 9.72228L19.5616 8.5172Z" fill="url(#paint3_linear_12_639)"/>
<path fill-rule="evenodd" clip-rule="evenodd" d="M15.8639 5.53246C15.5427 5.5163 15.2122 5.50799 14.8764 5.50799C13.6264 5.50799 12.45 5.62308 11.547 5.8303C11.107 5.93128 10.6523 6.07172 10.2728 6.27764C10.0838 6.38015 9.84567 6.53485 9.63938 6.76621C9.42529 7.00632 9.1902 7.39663 9.1902 7.91483C9.1902 7.98698 9.19491 8.05822 9.20398 8.1282L9.94497 16.7689C10.1075 18.6638 11.3225 20.2324 12.9848 20.9205V25.2795C12.3858 25.3413 11.8352 25.4332 11.3655 25.5525C10.9681 25.6534 10.547 25.7939 10.1915 26.0018C9.93907 26.1493 9.1902 26.6383 9.1902 27.5932C9.1902 28.1114 9.42529 28.5017 9.63938 28.7418C9.84567 28.9731 10.0838 29.1278 10.2728 29.2304C10.6523 29.4363 11.107 29.5767 11.547 29.6777C12.45 29.8849 13.6264 30 14.8764 30C16.1264 30 17.3028 29.8849 18.2058 29.6777C18.6458 29.5767 19.1006 29.4363 19.4801 29.2304C19.669 29.1278 19.9072 28.9731 20.1135 28.7418C20.3276 28.5017 20.5626 28.1114 20.5626 27.5932C20.5626 26.6294 19.8006 26.14 19.5492 25.9946C19.1901 25.7872 18.764 25.6466 18.3604 25.5457C17.8792 25.4253 17.3142 25.3333 16.6997 25.2726V20.9482C18.397 20.2752 19.6432 18.6896 19.8079 16.7689L20.2766 11.3027V8.2925L19.0732 8.59886L18.383 16.6467C18.2555 18.1331 17.2166 19.3381 15.845 19.7302C15.6804 19.7773 15.5111 19.8126 15.3379 19.8354C15.3152 19.8384 15.2924 19.8411 15.2696 19.8437V26.6205C15.2924 26.621 15.3152 26.6215 15.3379 26.6221C15.5103 26.6264 15.6795 26.633 15.845 26.6418C16.5408 26.679 17.171 26.7553 17.6893 26.8601C17.769 26.8763 17.8462 26.8931 17.9205 26.9105C18.6704 27.0866 19.1325 27.3275 19.1325 27.5932C19.1325 27.8588 18.6703 28.0997 17.9204 28.2758C17.8461 28.2933 17.769 28.3101 17.6893 28.3262C16.9393 28.4779 15.9547 28.5699 14.8764 28.5699C13.7982 28.5699 12.8135 28.4779 12.0636 28.3262C11.9838 28.3101 11.9067 28.2933 11.8325 28.2758C11.0825 28.0997 10.6203 27.8588 10.6203 27.5932C10.6203 27.3275 11.0825 27.0866 11.8324 26.9105C11.9067 26.8931 11.9838 26.8763 12.0636 26.8601C12.5648 26.7588 13.1708 26.684 13.8395 26.6456C14.0267 26.6349 14.2188 26.627 14.4149 26.6221V19.8354C14.2177 19.8095 14.0254 19.7672 13.8395 19.7099C12.5018 19.2978 11.4952 18.1084 11.3698 16.6467L10.625 7.96111C10.6219 7.94577 10.6203 7.93034 10.6203 7.91483C10.6203 7.37539 12.5258 6.93809 14.8764 6.93809C15.0726 6.93809 15.2657 6.94114 15.4548 6.94704C15.5194 6.44779 15.6598 5.9723 15.8639 5.53246ZM11.6324 26.7138C11.6316 26.7133 11.6312 26.7131 11.6312 26.7131C11.6311 26.7131 11.6328 26.7142 11.6365 26.7162C11.6347 26.7151 11.6333 26.7143 11.6324 26.7138Z" fill="black"/>
<path fill-rule="evenodd" clip-rule="evenodd" d="M15.8639 5.53246C15.5427 5.5163 15.2122 5.50799 14.8764 5.50799C13.6264 5.50799 12.45 5.62308 11.547 5.8303C11.107 5.93128 10.6523 6.07172 10.2728 6.27764C10.0838 6.38015 9.84567 6.53485 9.63938 6.76621C9.42529 7.00632 9.1902 7.39663 9.1902 7.91483C9.1902 7.98698 9.19491 8.05822 9.20398 8.1282L9.94497 16.7689C10.1075 18.6638 11.3225 20.2324 12.9848 20.9205V25.2795C12.3858 25.3413 11.8352 25.4332 11.3655 25.5525C10.9681 25.6534 10.547 25.7939 10.1915 26.0018C9.93907 26.1493 9.1902 26.6383 9.1902 27.5932C9.1902 28.1114 9.42529 28.5017 9.63938 28.7418C9.84567 28.9731 10.0838 29.1278 10.2728 29.2304C10.6523 29.4363 11.107 29.5767 11.547 29.6777C12.45 29.8849 13.6264 30 14.8764 30C16.1264 30 17.3028 29.8849 18.2058 29.6777C18.6458 29.5767 19.1006 29.4363 19.4801 29.2304C19.669 29.1278 19.9072 28.9731 20.1135 28.7418C20.3276 28.5017 20.5626 28.1114 20.5626 27.5932C20.5626 26.6294 19.8006 26.14 19.5492 25.9946C19.1901 25.7872 18.764 25.6466 18.3604 25.5457C17.8792 25.4253 17.3142 25.3333 16.6997 25.2726V20.9482C18.397 20.2752 19.6432 18.6896 19.8079 16.7689L20.2766 11.3027V8.2925L19.0732 8.59886L18.383 16.6467C18.2555 18.1331 17.2166 19.3381 15.845 19.7302C15.6804 19.7773 15.5111 19.8126 15.3379 19.8354C15.3152 19.8384 15.2924 19.8411 15.2696 19.8437V26.6205C15.2924 26.621 15.3152 26.6215 15.3379 26.6221C15.5103 26.6264 15.6795 26.633 15.845 26.6418C16.5408 26.679 17.171 26.7553 17.6893 26.8601C17.769 26.8763 17.8462 26.8931 17.9205 26.9105C18.6704 27.0866 19.1325 27.3275 19.1325 27.5932C19.1325 27.8588 18.6703 28.0997 17.9204 28.2758C17.8461 28.2933 17.769 28.3101 17.6893 28.3262C16.9393 28.4779 15.9547 28.5699 14.8764 28.5699C13.7982 28.5699 12.8135 28.4779 12.0636 28.3262C11.9838 28.3101 11.9067 28.2933 11.8325 28.2758C11.0825 28.0997 10.6203 27.8588 10.6203 27.5932C10.6203 27.3275 11.0825 27.0866 11.8324 26.9105C11.9067 26.8931 11.9838 26.8763 12.0636 26.8601C12.5648 26.7588 13.1708 26.684 13.8395 26.6456C14.0267 26.6349 14.2188 26.627 14.4149 26.6221V19.8354C14.2177 19.8095 14.0254 19.7672 13.8395 19.7099C12.5018 19.2978 11.4952 18.1084 11.3698 16.6467L10.625 7.96111C10.6219 7.94577 10.6203 7.93034 10.6203 7.91483C10.6203 7.37539 12.5258 6.93809 14.8764 6.93809C15.0726 6.93809 15.2657 6.94114 15.4548 6.94704C15.5194 6.44779 15.6598 5.9723 15.8639 5.53246ZM11.6324 26.7138C11.6316 26.7133 11.6312 26.7131 11.6312 26.7131C11.6311 26.7131 11.6328 26.7142 11.6365 26.7162C11.6347 26.7151 11.6333 26.7143 11.6324 26.7138Z" fill="url(#paint4_linear_12_639)"/>
<path fill-rule="evenodd" clip-rule="evenodd" d="M9.26245 3.55911C9.27869 3.5689 9.29889 3.58617 9.31604 3.62677L15.291 17.772C15.4446 18.1358 15.8641 18.3061 16.2279 18.1525C16.5917 17.9988 16.762 17.5793 16.6084 17.2155L10.6334 3.0703C10.0721 1.74133 8.1672 1.80586 7.69706 3.16977L6.18522 7.55577C6.05652 7.92913 6.25486 8.33612 6.62821 8.46481C7.00157 8.59351 7.40856 8.39517 7.53725 8.02182L9.0491 3.63581C9.06346 3.59415 9.08245 3.57554 9.09799 3.56468C9.11717 3.55128 9.14539 3.54064 9.17946 3.53949C9.21352 3.53833 9.2424 3.54704 9.26245 3.55911Z" fill="black"/>
<path fill-rule="evenodd" clip-rule="evenodd" d="M9.26245 3.55911C9.27869 3.5689 9.29889 3.58617 9.31604 3.62677L15.291 17.772C15.4446 18.1358 15.8641 18.3061 16.2279 18.1525C16.5917 17.9988 16.762 17.5793 16.6084 17.2155L10.6334 3.0703C10.0721 1.74133 8.1672 1.80586 7.69706 3.16977L6.18522 7.55577C6.05652 7.92913 6.25486 8.33612 6.62821 8.46481C7.00157 8.59351 7.40856 8.39517 7.53725 8.02182L9.0491 3.63581C9.06346 3.59415 9.08245 3.57554 9.09799 3.56468C9.11717 3.55128 9.14539 3.54064 9.17946 3.53949C9.21352 3.53833 9.2424 3.54704 9.26245 3.55911Z" fill="url(#paint5_linear_12_639)"/>
<defs>
<linearGradient id="paint0_linear_12_639" x1="16" y1="2" x2="16" y2="30" gradientUnits="userSpaceOnUse">
<stop stop-color="#0180FD"/>
<stop offset="1" stop-color="#1924BA"/>
</linearGradient>
<linearGradient id="paint1_linear_12_639" x1="16" y1="2" x2="16" y2="30" gradientUnits="userSpaceOnUse">
<stop stop-color="#0180FD"/>
<stop offset="1" stop-color="#1924BA"/>
</linearGradient>
<linearGradient id="paint2_linear_12_639" x1="16" y1="2" x2="16" y2="30" gradientUnits="userSpaceOnUse">
<stop stop-color="#0180FD"/>
<stop offset="1" stop-color="#1924BA"/>
</linearGradient>
<linearGradient id="paint3_linear_12_639" x1="16" y1="2" x2="16" y2="30" gradientUnits="userSpaceOnUse">
<stop stop-color="#0180FD"/>
<stop offset="1" stop-color="#1924BA"/>
</linearGradient>
<linearGradient id="paint4_linear_12_639" x1="16" y1="2" x2="16" y2="30" gradientUnits="userSpaceOnUse">
<stop stop-color="#0180FD"/>
<stop offset="1" stop-color="#1924BA"/>
</linearGradient>
<linearGradient id="paint5_linear_12_639" x1="16" y1="2" x2="16" y2="30" gradientUnits="userSpaceOnUse">
<stop stop-color="#0180FD"/>
<stop offset="1" stop-color="#1924BA"/>
</linearGradient>
</defs>
</svg>
