<svg width="32" height="32" viewBox="0 0 32 32" fill="none" xmlns="http://www.w3.org/2000/svg">
<path fill-rule="evenodd" clip-rule="evenodd" d="M13.572 7.97005L14.3241 17.682L5.22334 19.0269C3.52495 19.2779 2 17.9617 2 16.2449C2 15.238 2.53835 14.3079 3.41148 13.8064L13.572 7.97005ZM12.3473 10.2881L4.1088 15.0203C3.67034 15.2722 3.4 15.7393 3.4 16.2449C3.4 17.107 4.16578 17.768 5.01866 17.6419L12.8274 16.4879L12.3473 10.2881Z" fill="url(#paint0_linear_12_521)"/>
<path d="M4.1088 15.0203L12.3473 10.2881L12.8274 16.4879L5.01866 17.6419C4.16578 17.768 3.4 17.107 3.4 16.2449C3.4 15.7393 3.67034 15.2722 4.1088 15.0203Z" fill="url(#paint1_linear_12_521)"/>
<path fill-rule="evenodd" clip-rule="evenodd" d="M18.428 7.96997L17.6759 17.6819L26.7767 19.0268C28.4751 19.2778 30 17.9616 30 16.2448C30 15.2379 29.4616 14.3078 28.5885 13.8063L18.428 7.96997ZM19.6527 10.288L27.8912 15.0203C28.3297 15.2721 28.6 15.7392 28.6 16.2448C28.6 17.107 27.8342 17.7679 26.9813 17.6418L19.1726 16.4878L19.6527 10.288Z" fill="url(#paint2_linear_12_521)"/>
<path d="M27.8912 15.0203L19.6527 10.288L19.1726 16.4878L26.9813 17.6418C27.8342 17.7679 28.6 17.107 28.6 16.2448C28.6 15.7392 28.3297 15.2721 27.8912 15.0203Z" fill="url(#paint3_linear_12_521)"/>
<path fill-rule="evenodd" clip-rule="evenodd" d="M14.4162 19.8103L14.8197 25.0206L10.5029 25.6585C9.52629 25.8028 8.64941 25.046 8.64941 24.0588C8.64941 23.4798 8.95897 22.945 9.46104 22.6566L14.4162 19.8103ZM13.1915 22.1283L10.1584 23.8706C10.091 23.9093 10.0494 23.9811 10.0494 24.0588C10.0494 24.1913 10.1671 24.2929 10.2982 24.2735L13.323 23.8265L13.1915 22.1283Z" fill="url(#paint4_linear_12_521)"/>
<path d="M10.1584 23.8706L13.1915 22.1283L13.323 23.8265L10.2982 24.2735C10.1671 24.2929 10.0494 24.1913 10.0494 24.0588C10.0494 23.9811 10.091 23.9093 10.1584 23.8706Z" fill="url(#paint5_linear_12_521)"/>
<path fill-rule="evenodd" clip-rule="evenodd" d="M17.5765 19.8103L17.173 25.0206L21.4898 25.6585C22.4664 25.8028 23.3433 25.046 23.3433 24.0588C23.3433 23.4798 23.0337 22.945 22.5317 22.6566L17.5765 19.8103ZM18.8012 22.1283L21.8343 23.8706C21.9017 23.9093 21.9433 23.9811 21.9433 24.0588C21.9433 24.1913 21.8256 24.2929 21.6945 24.2736L18.6697 23.8265L18.8012 22.1283Z" fill="url(#paint6_linear_12_521)"/>
<path d="M21.8343 23.8706L18.8012 22.1283L18.6697 23.8265L21.6945 24.2736C21.8256 24.2929 21.9433 24.1913 21.9433 24.0588C21.9433 23.9811 21.9017 23.9093 21.8343 23.8706Z" fill="url(#paint7_linear_12_521)"/>
<path fill-rule="evenodd" clip-rule="evenodd" d="M12.1593 6.54507C12.0011 4.32048 13.7632 2.42871 15.9934 2.42871C18.2236 2.42871 19.9857 4.32049 19.8275 6.54508L18.585 24.0235C18.4883 25.3835 17.3568 26.4374 15.9934 26.4374C14.63 26.4374 13.4985 25.3835 13.4018 24.0235L12.1593 6.54507ZM15.9934 3.82871C14.5755 3.82871 13.4552 5.03146 13.5558 6.4458L14.7983 23.9242C14.8429 24.5514 15.3647 25.0374 15.9934 25.0374C16.6221 25.0374 17.1439 24.5514 17.1885 23.9242L18.4311 6.4458C18.5316 5.03146 17.4113 3.82871 15.9934 3.82871Z" fill="url(#paint8_linear_12_521)"/>
<path fill-rule="evenodd" clip-rule="evenodd" d="M15.9988 21.314C16.3854 21.314 16.6988 21.6274 16.6988 22.014V28.8716C16.6988 29.2582 16.3854 29.5716 15.9988 29.5716C15.6122 29.5716 15.2988 29.2582 15.2988 28.8716V22.014C15.2988 21.6274 15.6122 21.314 15.9988 21.314Z" fill="url(#paint9_linear_12_521)"/>
<path fill-rule="evenodd" clip-rule="evenodd" d="M16.3196 6.8696C16.1439 6.6925 15.8577 6.69192 15.6813 6.86832L14.9755 7.57417C14.7549 7.79475 14.3973 7.79475 14.1767 7.57417C13.9561 7.35358 13.9561 6.99593 14.1767 6.77534L14.8825 6.0695C15.5013 5.45067 16.5053 5.45268 17.1216 6.07399L17.819 6.77695C18.0387 6.99842 18.0372 7.35607 17.8157 7.57577C17.5943 7.79547 17.2366 7.79403 17.0169 7.57256L16.3196 6.8696Z" fill="url(#paint10_linear_12_521)"/>
<defs>
<linearGradient id="paint0_linear_12_521" x1="16" y1="2.77164" x2="16" y2="29.0497" gradientUnits="userSpaceOnUse">
<stop stop-color="#0180FD"/>
<stop offset="1" stop-color="#1924BA"/>
</linearGradient>
<linearGradient id="paint1_linear_12_521" x1="16" y1="2.77164" x2="16" y2="29.0497" gradientUnits="userSpaceOnUse">
<stop stop-color="#0180FD"/>
<stop offset="1" stop-color="#1924BA"/>
</linearGradient>
<linearGradient id="paint2_linear_12_521" x1="16" y1="2.77164" x2="16" y2="29.0497" gradientUnits="userSpaceOnUse">
<stop stop-color="#0180FD"/>
<stop offset="1" stop-color="#1924BA"/>
</linearGradient>
<linearGradient id="paint3_linear_12_521" x1="16" y1="2.77164" x2="16" y2="29.0497" gradientUnits="userSpaceOnUse">
<stop stop-color="#0180FD"/>
<stop offset="1" stop-color="#1924BA"/>
</linearGradient>
<linearGradient id="paint4_linear_12_521" x1="15.9994" y1="2.6178" x2="15.9994" y2="29.3578" gradientUnits="userSpaceOnUse">
<stop stop-color="#0180FD"/>
<stop offset="1" stop-color="#1924BA"/>
</linearGradient>
<linearGradient id="paint5_linear_12_521" x1="15.9994" y1="2.6178" x2="15.9994" y2="29.3578" gradientUnits="userSpaceOnUse">
<stop stop-color="#0180FD"/>
<stop offset="1" stop-color="#1924BA"/>
</linearGradient>
<linearGradient id="paint6_linear_12_521" x1="15.9994" y1="2.6178" x2="15.9994" y2="29.3578" gradientUnits="userSpaceOnUse">
<stop stop-color="#0180FD"/>
<stop offset="1" stop-color="#1924BA"/>
</linearGradient>
<linearGradient id="paint7_linear_12_521" x1="15.9994" y1="2.6178" x2="15.9994" y2="29.3578" gradientUnits="userSpaceOnUse">
<stop stop-color="#0180FD"/>
<stop offset="1" stop-color="#1924BA"/>
</linearGradient>
<linearGradient id="paint8_linear_12_521" x1="15.9934" y1="2.42871" x2="15.9994" y2="29.1267" gradientUnits="userSpaceOnUse">
<stop stop-color="#0180FD"/>
<stop offset="1" stop-color="#1924BA"/>
</linearGradient>
<linearGradient id="paint9_linear_12_521" x1="15.9988" y1="2.92576" x2="15.9988" y2="29.5716" gradientUnits="userSpaceOnUse">
<stop stop-color="#0180FD"/>
<stop offset="1" stop-color="#1924BA"/>
</linearGradient>
<linearGradient id="paint10_linear_12_521" x1="15.9992" y1="2.77169" x2="15.9992" y2="29.3577" gradientUnits="userSpaceOnUse">
<stop stop-color="#0180FD"/>
<stop offset="1" stop-color="#1924BA"/>
</linearGradient>
</defs>
</svg>
