<svg width="32" height="32" viewBox="0 0 32 32" fill="none" xmlns="http://www.w3.org/2000/svg">
<path fill-rule="evenodd" clip-rule="evenodd" d="M15.9391 9.17949C12.1723 9.17949 9.1187 12.2331 9.1187 15.9999C9.1187 19.7667 12.1723 22.8203 15.9391 22.8203C19.7059 22.8203 22.7595 19.7667 22.7595 15.9999C22.7595 12.2331 19.7059 9.17949 15.9391 9.17949ZM7.64502 15.9999C7.64502 11.4192 11.3584 7.70581 15.9391 7.70581C20.5198 7.70581 24.2332 11.4192 24.2332 15.9999C24.2332 20.5806 20.5198 24.294 15.9391 24.294C11.3584 24.294 7.64502 20.5806 7.64502 15.9999Z" fill="url(#paint0_linear_12_624)"/>
<path fill-rule="evenodd" clip-rule="evenodd" d="M12.3272 15.2631C12.7341 15.2631 13.064 15.593 13.064 15.9999C13.064 17.5877 14.3511 18.8748 15.9389 18.8748C16.3458 18.8748 16.6757 19.2047 16.6757 19.6116C16.6757 20.0186 16.3458 20.3485 15.9389 20.3485C13.5372 20.3485 11.5903 18.4015 11.5903 15.9999C11.5903 15.593 11.9202 15.2631 12.3272 15.2631Z" fill="url(#paint1_linear_12_624)"/>
<path fill-rule="evenodd" clip-rule="evenodd" d="M19.5809 16.7368C19.174 16.7368 18.8441 16.4069 18.8441 15.9999C18.8441 14.4122 17.557 13.125 15.9692 13.125C15.5623 13.125 15.2324 12.7952 15.2324 12.3882C15.2324 11.9813 15.5623 11.6514 15.9692 11.6514C18.3708 11.6514 20.3178 13.5983 20.3178 15.9999C20.3178 16.4069 19.9879 16.7368 19.5809 16.7368Z" fill="url(#paint2_linear_12_624)"/>
<path fill-rule="evenodd" clip-rule="evenodd" d="M26.5636 10.5121C26.3295 10.9079 26.2058 11.4688 26.2352 12.0146C26.2769 12.7866 26.6271 13.2342 26.96 13.5035C27.1209 13.6336 27.2808 13.7235 27.4049 13.7819C27.535 13.7189 27.7024 13.6226 27.8674 13.486C28.2017 13.2092 28.5261 12.7734 28.5261 12.0543C28.5261 11.4776 28.4068 10.9102 28.1869 10.5129C27.9793 10.138 27.7266 9.97328 27.4006 9.96843C27.0669 9.96346 26.7879 10.1329 26.5636 10.5121ZM28.1484 15.0574C28.3419 14.9565 28.5736 14.8145 28.8071 14.6212C29.3985 14.1316 29.9998 13.3079 29.9998 12.0543C29.9998 11.3127 29.8524 10.4786 29.4762 9.79909C29.0875 9.09714 28.4146 8.50968 27.4225 8.49491C26.425 8.48006 25.712 9.05719 25.2952 9.76184C24.8882 10.4499 24.7215 11.3103 24.7637 12.0939C24.8317 13.3554 25.4375 14.1674 26.0332 14.6492C26.2611 14.8336 26.4854 14.9686 26.6747 15.065V23.5571C26.6747 23.964 27.0046 24.2939 27.4115 24.2939C27.8185 24.2939 28.1484 23.964 28.1484 23.5571V15.0574Z" fill="url(#paint3_linear_12_624)"/>
<path fill-rule="evenodd" clip-rule="evenodd" d="M2.73684 8.40381C3.14379 8.40381 3.47368 8.7337 3.47368 9.14065V12.1757C3.47368 12.4516 3.58284 12.702 3.76032 12.886V9.14065C3.76032 8.7337 4.09022 8.40381 4.49717 8.40381C4.90411 8.40381 5.23401 8.7337 5.23401 9.14065V12.886C5.41149 12.702 5.52065 12.4516 5.52065 12.1757V9.14065C5.52065 8.7337 5.85054 8.40381 6.25749 8.40381C6.66444 8.40381 6.99433 8.7337 6.99433 9.14065V12.1757C6.99433 13.2984 6.25348 14.248 5.23401 14.5624V23.5571C5.23401 23.964 4.90411 24.2939 4.49717 24.2939C4.09022 24.2939 3.76032 23.964 3.76032 23.5571V14.5624C2.74085 14.248 2 13.2984 2 12.1757V9.14065C2 8.7337 2.32989 8.40381 2.73684 8.40381Z" fill="url(#paint4_linear_12_624)"/>
<defs>
<linearGradient id="paint0_linear_12_624" x1="15.9391" y1="7.70581" x2="15.9391" y2="24.294" gradientUnits="userSpaceOnUse">
<stop stop-color="#0180FD"/>
<stop offset="1" stop-color="#1924BA"/>
</linearGradient>
<linearGradient id="paint1_linear_12_624" x1="17.9006" y1="7.88263" x2="17.7975" y2="24.9626" gradientUnits="userSpaceOnUse">
<stop stop-color="#0180FD"/>
<stop offset="1" stop-color="#1924BA"/>
</linearGradient>
<linearGradient id="paint2_linear_12_624" x1="17.9006" y1="7.88263" x2="17.7975" y2="24.9626" gradientUnits="userSpaceOnUse">
<stop stop-color="#0180FD"/>
<stop offset="1" stop-color="#1924BA"/>
</linearGradient>
<linearGradient id="paint3_linear_12_624" x1="27.3785" y1="8.49463" x2="27.3785" y2="24.2939" gradientUnits="userSpaceOnUse">
<stop stop-color="#0180FD"/>
<stop offset="1" stop-color="#1924BA"/>
</linearGradient>
<linearGradient id="paint4_linear_12_624" x1="4.49717" y1="8.40381" x2="4.49717" y2="24.2939" gradientUnits="userSpaceOnUse">
<stop stop-color="#0180FD"/>
<stop offset="1" stop-color="#1924BA"/>
</linearGradient>
</defs>
</svg>
