<svg width="32" height="32" viewBox="0 0 32 32" fill="none" xmlns="http://www.w3.org/2000/svg">
<path fill-rule="evenodd" clip-rule="evenodd" d="M16.0001 3.5156C11.3037 3.5156 7.49656 7.32275 7.49656 12.0191C7.49656 14.7155 8.83702 17.9706 10.5583 21.0089C12.2644 24.0203 14.2778 26.7049 15.4926 28.2311C15.7611 28.5684 16.2427 28.5688 16.5117 28.2323C17.7272 26.7117 19.7395 24.0377 21.4442 21.0304C23.1637 17.9969 24.5035 14.7381 24.5035 12.0191C24.5035 7.32275 20.6964 3.5156 16.0001 3.5156ZM5.98096 12.0191C5.98096 6.4857 10.4667 2 16.0001 2C21.5334 2 26.0191 6.4857 26.0191 12.0191C26.0191 15.1507 24.5081 18.6988 22.7627 21.7778C21.0026 24.8828 18.936 27.6268 17.6956 29.1786C16.8189 30.2754 15.1811 30.2734 14.3068 29.175C13.0675 27.618 11.0005 24.8641 9.23961 21.7559C7.49393 18.6746 5.98096 15.1294 5.98096 12.0191Z" fill="black"/>
<path fill-rule="evenodd" clip-rule="evenodd" d="M16.0001 3.5156C11.3037 3.5156 7.49656 7.32275 7.49656 12.0191C7.49656 14.7155 8.83702 17.9706 10.5583 21.0089C12.2644 24.0203 14.2778 26.7049 15.4926 28.2311C15.7611 28.5684 16.2427 28.5688 16.5117 28.2323C17.7272 26.7117 19.7395 24.0377 21.4442 21.0304C23.1637 17.9969 24.5035 14.7381 24.5035 12.0191C24.5035 7.32275 20.6964 3.5156 16.0001 3.5156ZM5.98096 12.0191C5.98096 6.4857 10.4667 2 16.0001 2C21.5334 2 26.0191 6.4857 26.0191 12.0191C26.0191 15.1507 24.5081 18.6988 22.7627 21.7778C21.0026 24.8828 18.936 27.6268 17.6956 29.1786C16.8189 30.2754 15.1811 30.2734 14.3068 29.175C13.0675 27.618 11.0005 24.8641 9.23961 21.7559C7.49393 18.6746 5.98096 15.1294 5.98096 12.0191Z" fill="url(#paint0_linear_12_600)"/>
<path fill-rule="evenodd" clip-rule="evenodd" d="M16.0046 16.0366C18.158 16.0366 19.9037 14.2908 19.9037 12.1374C19.9037 9.98397 18.158 8.23826 16.0046 8.23826C13.8512 8.23826 12.1054 9.98397 12.1054 12.1374C12.1054 14.2908 13.8512 16.0366 16.0046 16.0366ZM16.0046 17.5522C18.9951 17.5522 21.4193 15.1279 21.4193 12.1374C21.4193 9.14692 18.9951 6.72266 16.0046 6.72266C13.0141 6.72266 10.5898 9.14692 10.5898 12.1374C10.5898 15.1279 13.0141 17.5522 16.0046 17.5522Z" fill="black"/>
<path fill-rule="evenodd" clip-rule="evenodd" d="M16.0046 16.0366C18.158 16.0366 19.9037 14.2908 19.9037 12.1374C19.9037 9.98397 18.158 8.23826 16.0046 8.23826C13.8512 8.23826 12.1054 9.98397 12.1054 12.1374C12.1054 14.2908 13.8512 16.0366 16.0046 16.0366ZM16.0046 17.5522C18.9951 17.5522 21.4193 15.1279 21.4193 12.1374C21.4193 9.14692 18.9951 6.72266 16.0046 6.72266C13.0141 6.72266 10.5898 9.14692 10.5898 12.1374C10.5898 15.1279 13.0141 17.5522 16.0046 17.5522Z" fill="url(#paint1_linear_12_600)"/>
<path d="M19.9037 12.1374C19.9037 14.2908 18.158 16.0366 16.0046 16.0366C13.8512 16.0366 12.1054 14.2908 12.1054 12.1374C12.1054 9.98397 13.8512 8.23826 16.0046 8.23826C18.158 8.23826 19.9037 9.98397 19.9037 12.1374Z" fill="black"/>
<path d="M19.9037 12.1374C19.9037 14.2908 18.158 16.0366 16.0046 16.0366C13.8512 16.0366 12.1054 14.2908 12.1054 12.1374C12.1054 9.98397 13.8512 8.23826 16.0046 8.23826C18.158 8.23826 19.9037 9.98397 19.9037 12.1374Z" fill="url(#paint2_linear_12_600)"/>
<defs>
<linearGradient id="paint0_linear_12_600" x1="16.0001" y1="2" x2="16.0001" y2="30" gradientUnits="userSpaceOnUse">
<stop stop-color="#0180FD"/>
<stop offset="1" stop-color="#1924BA"/>
</linearGradient>
<linearGradient id="paint1_linear_12_600" x1="16.0005" y1="2.1212" x2="16.0005" y2="29.8492" gradientUnits="userSpaceOnUse">
<stop stop-color="#0180FD"/>
<stop offset="1" stop-color="#1924BA"/>
</linearGradient>
<linearGradient id="paint2_linear_12_600" x1="16.0005" y1="2.1212" x2="16.0005" y2="29.8492" gradientUnits="userSpaceOnUse">
<stop stop-color="#0180FD"/>
<stop offset="1" stop-color="#1924BA"/>
</linearGradient>
</defs>
</svg>
