<svg width="32" height="32" viewBox="0 0 32 32" fill="none" xmlns="http://www.w3.org/2000/svg">
<path fill-rule="evenodd" clip-rule="evenodd" d="M13.287 3.47368C12.8389 3.47368 12.4756 3.83695 12.4756 4.28505V5.87363C12.4756 6.28058 12.1457 6.61047 11.7388 6.61047C11.3318 6.61047 11.002 6.28058 11.002 5.87363V4.28505C11.002 3.02305 12.025 2 13.287 2H18.7145C19.9765 2 20.9995 3.02305 20.9995 4.28505V5.87363C20.9995 6.28058 20.6696 6.61047 20.2627 6.61047C19.8557 6.61047 19.5258 6.28058 19.5258 5.87363V4.28505C19.5258 3.83695 19.1626 3.47368 18.7145 3.47368H13.287Z" fill="url(#paint0_linear_12_534)"/>
<path fill-rule="evenodd" clip-rule="evenodd" d="M10.2075 26.8896C10.6145 26.8896 10.9444 27.2195 10.9444 27.6265V29.2631C10.9444 29.67 10.6145 29.9999 10.2075 29.9999C9.8006 29.9999 9.4707 29.67 9.4707 29.2631V27.6265C9.4707 27.2195 9.8006 26.8896 10.2075 26.8896Z" fill="url(#paint1_linear_12_534)"/>
<path fill-rule="evenodd" clip-rule="evenodd" d="M21.8 26.8896C22.207 26.8896 22.5369 27.2195 22.5369 27.6265V29.2631C22.5369 29.67 22.207 29.9999 21.8 29.9999C21.3931 29.9999 21.0632 29.67 21.0632 29.2631V27.6265C21.0632 27.2195 21.3931 26.8896 21.8 26.8896Z" fill="url(#paint2_linear_12_534)"/>
<path fill-rule="evenodd" clip-rule="evenodd" d="M6.77344 7.98765C6.77344 6.45088 8.01924 5.20508 9.55601 5.20508H22.4441C23.9809 5.20508 25.2267 6.45088 25.2267 7.98765V25.3082C25.2267 26.8449 23.9809 28.0907 22.4441 28.0907H9.55601C8.01924 28.0907 6.77344 26.8449 6.77344 25.3082V7.98765ZM9.55601 6.67876C8.83313 6.67876 8.24712 7.26477 8.24712 7.98765V25.3082C8.24712 26.0311 8.83313 26.6171 9.55601 26.6171H22.4441C23.167 26.6171 23.753 26.0311 23.753 25.3082V7.98765C23.753 7.26477 23.167 6.67876 22.4441 6.67876H9.55601Z" fill="url(#paint3_linear_12_534)"/>
<path fill-rule="evenodd" clip-rule="evenodd" d="M12.1379 13.7971C11.0545 13.7971 10.1763 14.6754 10.1763 15.7588V26.129C10.1763 27.2124 11.0545 28.0907 12.1379 28.0907H19.8544C20.9378 28.0907 21.8161 27.2124 21.8161 26.129V15.7588C21.8161 14.6754 20.9378 13.7971 19.8544 13.7971H12.1379ZM13.0299 16.7975C12.6229 16.7975 12.293 17.1274 12.293 17.5344C12.293 17.9413 12.6229 18.2712 13.0299 18.2712H17.271V18.8982C17.271 19.3051 17.6009 19.635 18.0078 19.635C18.4148 19.635 18.7447 19.3051 18.7447 18.8982V18.2712H18.9625C19.3694 18.2712 19.6993 17.9413 19.6993 17.5344C19.6993 17.1274 19.3694 16.7975 18.9625 16.7975H13.0299Z" fill="url(#paint4_linear_12_534)"/>
<path fill-rule="evenodd" clip-rule="evenodd" d="M10.9448 10.1697C10.9448 9.76276 11.2747 9.43286 11.6817 9.43286H20.3078C20.7148 9.43286 21.0447 9.76276 21.0447 10.1697C21.0447 10.5767 20.7148 10.9065 20.3078 10.9065H19.6127V11.4653C19.6127 11.8723 19.2828 12.2022 18.8758 12.2022C18.4689 12.2022 18.139 11.8723 18.139 11.4653V10.9065H11.6817C11.2747 10.9065 10.9448 10.5767 10.9448 10.1697Z" fill="url(#paint5_linear_12_534)"/>
<defs>
<linearGradient id="paint0_linear_12_534" x1="16.0007" y1="2" x2="15.9977" y2="29.8526" gradientUnits="userSpaceOnUse">
<stop stop-color="#0180FD"/>
<stop offset="1" stop-color="#1924BA"/>
</linearGradient>
<linearGradient id="paint1_linear_12_534" x1="15.9991" y1="2.50834" x2="16.0038" y2="29.9999" gradientUnits="userSpaceOnUse">
<stop stop-color="#0180FD"/>
<stop offset="1" stop-color="#1924BA"/>
</linearGradient>
<linearGradient id="paint2_linear_12_534" x1="15.9991" y1="2.50834" x2="16.0038" y2="29.9999" gradientUnits="userSpaceOnUse">
<stop stop-color="#0180FD"/>
<stop offset="1" stop-color="#1924BA"/>
</linearGradient>
<linearGradient id="paint3_linear_12_534" x1="15.9987" y1="2.25063" x2="15.9987" y2="30.0296" gradientUnits="userSpaceOnUse">
<stop stop-color="#0180FD"/>
<stop offset="1" stop-color="#1924BA"/>
</linearGradient>
<linearGradient id="paint4_linear_12_534" x1="15.9973" y1="2.42008" x2="15.9973" y2="29.9411" gradientUnits="userSpaceOnUse">
<stop stop-color="#0180FD"/>
<stop offset="1" stop-color="#1924BA"/>
</linearGradient>
<linearGradient id="paint5_linear_12_534" x1="15.9996" y1="1.90418" x2="15.9996" y2="29.6831" gradientUnits="userSpaceOnUse">
<stop stop-color="#0180FD"/>
<stop offset="1" stop-color="#1924BA"/>
</linearGradient>
</defs>
</svg>
