<svg width="32" height="32" viewBox="0 0 32 32" fill="none" xmlns="http://www.w3.org/2000/svg">
<path fill-rule="evenodd" clip-rule="evenodd" d="M17.7726 7.32777C18.138 6.64489 19.1167 6.64381 19.4836 7.32587L21.9658 11.9401L21.3121 12.5786C21.018 12.8658 20.5485 12.8658 20.2544 12.5786C19.3544 11.6996 17.9174 11.6996 17.0175 12.5786C16.7234 12.8658 16.2538 12.8658 15.9597 12.5786L15.305 11.9392L17.7726 7.32777ZM22.4017 13.6942L22.7345 13.3691L28.3213 23.7542C28.6692 24.401 28.2007 25.185 27.4663 25.185H18.6206C18.4258 25.631 17.9856 25.9646 17.4321 25.9646H8.00935C8.45943 26.438 9.09674 26.7444 9.83781 26.7444H27.4663C29.3804 26.7444 30.6013 24.7012 29.6945 23.0155L20.8568 6.58713C19.9006 4.80954 17.35 4.81237 16.3977 6.59207L12.7976 13.32L13.6843 14.9681L14.539 13.3707L14.8701 13.6942C15.7701 14.5731 17.2071 14.5731 18.107 13.6942C18.4011 13.4069 18.8707 13.4069 19.1648 13.6942C20.0648 14.5731 21.5017 14.5731 22.4017 13.6942Z" fill="url(#paint0_linear_12_564)"/>
<path fill-rule="evenodd" clip-rule="evenodd" d="M11.3464 12.2681C11.1515 11.9058 10.6316 11.9063 10.4375 12.2691L8.68333 15.5473L9.05885 15.914C9.19772 16.0497 9.41946 16.0497 9.55833 15.914C10.303 15.1867 11.4922 15.1867 12.2369 15.914C12.3758 16.0497 12.5975 16.0497 12.7364 15.914L13.1109 15.5482L11.3464 12.2681ZM13.8796 16.9771L13.8259 17.0296C13.0812 17.757 11.8921 17.757 11.1474 17.0296C11.0085 16.894 10.7867 16.894 10.6479 17.0296C9.90315 17.757 8.71402 17.757 7.9693 17.0296L7.91732 16.9788L7.61883 17.5366C7.29587 18.1402 6.66691 18.517 5.98237 18.517C5.85778 18.517 5.74647 18.5948 5.70372 18.7119L3.59246 24.4925C3.46958 24.8289 3.71868 25.1851 4.07687 25.1851H17.4321C17.8222 25.1851 18.0711 24.7686 17.8862 24.4251L13.8796 16.9771ZM9.0626 11.5334C9.84361 10.0738 11.9354 10.0715 12.7196 11.5293L19.2595 23.6863C20.0032 25.0688 19.0019 26.7444 17.4321 26.7444H4.07687C2.63562 26.7444 1.6333 25.3113 2.12774 23.9575L4.239 18.1769C4.50643 17.4447 5.20287 16.9576 5.98237 16.9576C6.09179 16.9576 6.19232 16.8974 6.24394 16.8009L9.0626 11.5334Z" fill="url(#paint1_linear_12_564)"/>
<path d="M13.8259 17.0296L13.8796 16.9771L17.8862 24.4251C18.0711 24.7686 17.8222 25.1851 17.4321 25.1851H4.07687C3.71868 25.1851 3.46958 24.8289 3.59246 24.4925L5.70372 18.7119C5.74647 18.5948 5.85778 18.517 5.98237 18.517C6.66691 18.517 7.29587 18.1402 7.61883 17.5366L7.91732 16.9788L7.9693 17.0296C8.71402 17.757 9.90315 17.757 10.6479 17.0296C10.7867 16.894 11.0085 16.894 11.1474 17.0296C11.8921 17.757 13.0812 17.757 13.8259 17.0296Z" fill="url(#paint2_linear_12_564)"/>
<defs>
<linearGradient id="paint0_linear_12_564" x1="16" y1="5.25562" x2="16" y2="26.7444" gradientUnits="userSpaceOnUse">
<stop stop-color="#0180FD"/>
<stop offset="1" stop-color="#1924BA"/>
</linearGradient>
<linearGradient id="paint1_linear_12_564" x1="16" y1="5.25562" x2="16" y2="26.7444" gradientUnits="userSpaceOnUse">
<stop stop-color="#0180FD"/>
<stop offset="1" stop-color="#1924BA"/>
</linearGradient>
<linearGradient id="paint2_linear_12_564" x1="16" y1="5.25562" x2="16" y2="26.7444" gradientUnits="userSpaceOnUse">
<stop stop-color="#0180FD"/>
<stop offset="1" stop-color="#1924BA"/>
</linearGradient>
</defs>
</svg>
