<svg width="32" height="32" viewBox="0 0 32 32" fill="none" xmlns="http://www.w3.org/2000/svg">
<path d="M15.9568 3.03667C12.5188 3.04811 9.22608 4.42485 6.80312 6.86401C4.38015 9.30317 3.02537 12.6049 3.03682 16.043C3.04827 19.481 4.42501 22.7737 6.86417 25.1967C9.30332 27.6196 12.6051 28.9744 16.0431 28.963C19.4812 28.9515 22.7739 27.5748 25.1968 25.1356C27.6198 22.6965 28.9746 19.3947 28.9631 15.9567C28.9517 12.5186 27.5749 9.22593 25.1358 6.80296C22.6966 4.37999 19.3948 3.02522 15.9568 3.03667ZM15.973 7.89785C17.2824 7.85334 18.583 8.12703 19.7634 8.69543L8.72081 19.8118C8.14456 18.6352 7.86222 17.3364 7.898 16.0268C7.89085 13.878 8.73758 11.8144 10.2519 10.2899C11.7663 8.76546 13.8242 7.905 15.973 7.89785ZM24.1019 15.9728C24.1091 18.1216 23.2624 20.1852 21.748 21.7097C20.2337 23.2342 18.1757 24.0946 16.027 24.1018C14.7176 24.1463 13.417 23.8726 12.2366 23.3042L23.2791 12.1879C23.8554 13.3644 24.1377 14.6632 24.1019 15.9728Z" fill="url(#paint0_linear_110_25)"/>
<defs>
<linearGradient id="paint0_linear_110_25" x1="15.9568" y1="3.03667" x2="16.0431" y2="28.963" gradientUnits="userSpaceOnUse">
<stop stop-color="#FE0101"/>
<stop offset="1" stop-color="#B81919"/>
</linearGradient>
</defs>
</svg>
