<svg width="32" height="32" viewBox="0 0 32 32" fill="none" xmlns="http://www.w3.org/2000/svg">
<path fill-rule="evenodd" clip-rule="evenodd" d="M24.1642 2.00044C25.658 1.97368 26.8833 3.17728 26.8833 4.67133V24.9543C26.8833 26.3568 25.8025 27.5069 24.4283 27.617C24.2692 29.1062 22.8935 30.1984 21.3746 29.9697L7.39029 27.8641C6.08329 27.6673 5.1167 26.5443 5.1167 25.2225V4.94813C5.1167 3.36168 6.48725 2.1361 8.04586 2.28919L24.1642 2.00044ZM16.9239 3.62227L22.1701 4.41218C23.4771 4.60897 24.4437 5.732 24.4437 7.05373V26.111C24.9841 26.0034 25.3914 25.5264 25.3914 24.9543V4.67133C25.3914 4.01168 24.8504 3.48027 24.1909 3.49209L16.9239 3.62227ZM7.96363 3.78184C7.25033 3.67444 6.60859 4.2268 6.60859 4.94813V25.2225C6.60859 25.8061 7.03535 26.3019 7.61241 26.3888L21.5967 28.4944C22.31 28.6018 22.9518 28.0495 22.9518 27.3281V7.05373C22.9518 6.47016 22.525 5.97433 21.948 5.88744L7.96363 3.78184Z" fill="url(#paint0_linear_12_528)"/>
<path d="M22.1701 4.41218L16.9239 3.62227L24.1909 3.49209C24.8504 3.48027 25.3914 4.01168 25.3914 4.67133V24.9543C25.3914 25.5264 24.9841 26.0034 24.4437 26.111V7.05373C24.4437 5.732 23.4771 4.60897 22.1701 4.41218Z" fill="url(#paint1_linear_12_528)"/>
<path fill-rule="evenodd" clip-rule="evenodd" d="M10.5296 10.9598C10.8276 11.1689 11.1648 11.3499 11.5313 11.5008C11.6111 10.8985 11.7273 10.3402 11.8905 9.84919C11.8961 9.83237 11.9018 9.81558 11.9075 9.79883C11.3817 10.1013 10.9152 10.4955 10.5296 10.9598ZM14.4335 7.63438C12.0985 7.63438 10.0489 8.85411 8.88623 10.6877C8.2421 11.7035 7.86923 12.9087 7.86923 14.1987C7.86923 15.4887 8.2421 16.6939 8.88623 17.7097C10.0489 19.5432 12.0985 20.763 14.4335 20.763C16.7686 20.763 18.8182 19.5432 19.9808 17.7097C20.625 16.6939 20.9978 15.4887 20.9978 14.1987C20.9978 12.9087 20.625 11.7035 19.9808 10.6877C18.8182 8.85411 16.7686 7.63438 14.4335 7.63438ZM14.4335 9.12626C14.1803 9.12626 13.9944 9.20863 13.8278 9.37126C13.6426 9.55209 13.4604 9.856 13.3063 10.3198C13.1588 10.7634 13.0533 11.3018 12.9832 11.9152C13.4544 11.9985 13.9468 12.0415 14.4469 12.0415C14.9492 12.0415 15.4427 11.9981 15.9139 11.9142C15.8407 11.3035 15.7315 10.7672 15.5808 10.3253C15.4228 9.86198 15.2369 9.55664 15.0479 9.37418C14.8769 9.20907 14.6873 9.12626 14.4335 9.12626ZM17.3641 11.4962C17.2808 10.8935 17.1604 10.335 16.9929 9.84371C16.9892 9.83304 16.9856 9.82239 16.9819 9.81175C17.4998 10.1133 17.9596 10.504 18.3403 10.9632C18.0504 11.1686 17.7218 11.347 17.3641 11.4962ZM16.0202 13.4088C15.4993 13.4926 14.9697 13.5334 14.4469 13.5334C13.9273 13.5334 13.4008 13.4932 12.8824 13.4106C12.875 13.6659 12.8714 13.9289 12.8714 14.1987C12.8714 14.4727 12.8751 14.7396 12.8828 14.9987C13.4011 14.9167 13.9275 14.8767 14.4468 14.8767C14.9695 14.8767 15.499 14.9172 16.0198 15.0004C16.028 14.7408 16.032 14.4732 16.032 14.1987C16.032 13.9283 16.0282 13.6647 16.0202 13.4088ZM17.4988 15.366C17.5162 14.984 17.5239 14.5935 17.5239 14.1987C17.5239 13.8071 17.5163 13.4197 17.4992 13.0407C18.0801 12.8395 18.6273 12.5745 19.115 12.242C19.3668 12.8436 19.5059 13.5044 19.5059 14.1987C19.5059 14.8942 19.3663 15.5561 19.1136 16.1586C18.6262 15.8287 18.0792 15.5657 17.4988 15.366ZM15.9125 16.4946C15.4418 16.4116 14.9487 16.3686 14.4468 16.3686C13.9473 16.3686 13.4553 16.4112 12.9846 16.4937C13.0547 17.1023 13.1597 17.6368 13.3063 18.0776C13.4604 18.5414 13.6426 18.8453 13.8278 19.0261C13.9944 19.1887 14.1803 19.2711 14.4335 19.2711C14.6873 19.2711 14.8769 19.1883 15.0479 19.0232C15.2369 18.8407 15.4228 18.5354 15.5808 18.0721C15.7306 17.633 15.8393 17.1006 15.9125 16.4946ZM16.9819 18.5856C16.9856 18.575 16.9892 18.5643 16.9929 18.5536C17.1597 18.0645 17.2797 17.5087 17.363 16.909C17.7203 17.0568 18.0485 17.2333 18.3383 17.4366C17.958 17.8947 17.4989 18.2846 16.9819 18.5856ZM11.9075 18.5985C11.9018 18.5818 11.8961 18.565 11.8905 18.5482C11.728 18.0593 11.6122 17.5038 11.5323 16.9045C11.1663 17.0539 10.8294 17.233 10.5315 17.4399C10.9167 17.9032 11.3826 18.2965 11.9075 18.5985ZM9.75528 16.163C10.253 15.8283 10.8112 15.5621 11.4029 15.3608C11.3866 14.9804 11.3795 14.5916 11.3795 14.1987C11.3795 13.809 11.3865 13.4233 11.4025 13.0459C10.8104 12.8431 10.2519 12.5748 9.75393 12.2375C9.50094 12.8404 9.36112 13.5026 9.36112 14.1987C9.36112 14.8959 9.50144 15.5593 9.75528 16.163Z" fill="url(#paint2_linear_12_528)"/>
<path fill-rule="evenodd" clip-rule="evenodd" d="M10.6901 23.2111C10.7574 22.8047 11.1414 22.5297 11.5479 22.5971L18.0333 23.6712C18.4398 23.7385 18.7147 24.1226 18.6474 24.529C18.5801 24.9355 18.196 25.2104 17.7896 25.1431L11.3041 24.0689C10.8977 24.0016 10.6227 23.6175 10.6901 23.2111Z" fill="url(#paint3_linear_12_528)"/>
<defs>
<linearGradient id="paint0_linear_12_528" x1="16" y1="2" x2="16" y2="30" gradientUnits="userSpaceOnUse">
<stop stop-color="#0180FD"/>
<stop offset="1" stop-color="#1924BA"/>
</linearGradient>
<linearGradient id="paint1_linear_12_528" x1="16" y1="2" x2="16" y2="30" gradientUnits="userSpaceOnUse">
<stop stop-color="#0180FD"/>
<stop offset="1" stop-color="#1924BA"/>
</linearGradient>
<linearGradient id="paint2_linear_12_528" x1="16" y1="2" x2="16" y2="30" gradientUnits="userSpaceOnUse">
<stop stop-color="#0180FD"/>
<stop offset="1" stop-color="#1924BA"/>
</linearGradient>
<linearGradient id="paint3_linear_12_528" x1="16" y1="2" x2="16" y2="30" gradientUnits="userSpaceOnUse">
<stop stop-color="#0180FD"/>
<stop offset="1" stop-color="#1924BA"/>
</linearGradient>
</defs>
</svg>
