<svg width="32" height="32" viewBox="0 0 32 32" fill="none" xmlns="http://www.w3.org/2000/svg">
<path fill-rule="evenodd" clip-rule="evenodd" d="M14.2157 2.84839C13.2992 2.84839 12.5563 3.59132 12.5563 4.50777V5.34216H11.4825C10.566 5.34216 9.82307 6.08509 9.82307 7.00154V8.30351H9.66031C8.74386 8.30351 8.00093 9.04644 8.00093 9.96289V14.9201L7.1443 15.2241C6.33648 15.5107 5.87993 16.3655 6.09087 17.1963L8.02295 24.8062L9.41121 24.4537L7.47913 16.8438C7.45026 16.7301 7.51274 16.6132 7.62328 16.5739L15.2895 13.8536V24.0065H16.7218V13.8536L24.388 16.5739C24.4986 16.6132 24.561 16.7301 24.5322 16.8438L22.6001 24.4537L23.9883 24.8062L25.9204 17.1963C26.1314 16.3655 25.6748 15.5107 24.867 15.2241L24.0104 14.9201V9.96289C24.0104 9.04644 23.2674 8.30351 22.351 8.30351H22.1882V7.00154C22.1882 6.08509 21.4453 5.34216 20.5288 5.34216H19.455V4.50777C19.455 3.59132 18.7121 2.84839 17.7956 2.84839H14.2157ZM20.7559 8.30351H11.2554V7.00154C11.2554 6.87613 11.357 6.77447 11.4825 6.77447H20.5288C20.6543 6.77447 20.7559 6.87613 20.7559 7.00154V8.30351ZM12.7218 11.1977C12.7218 11.5932 12.4012 11.9138 12.0057 11.9138C11.6102 11.9138 11.2895 11.5932 11.2895 11.1977C11.2895 10.8022 11.6102 10.4815 12.0057 10.4815C12.4012 10.4815 12.7218 10.8022 12.7218 11.1977ZM14.521 11.9138C14.9165 11.9138 15.2371 11.5932 15.2371 11.1977C15.2371 10.8022 14.9165 10.4815 14.521 10.4815C14.1254 10.4815 13.8048 10.8022 13.8048 11.1977C13.8048 11.5932 14.1254 11.9138 14.521 11.9138ZM17.7524 11.1977C17.7524 11.5932 17.4318 11.9138 17.0362 11.9138C16.6407 11.9138 16.3201 11.5932 16.3201 11.1977C16.3201 10.8022 16.6407 10.4815 17.0362 10.4815C17.4318 10.4815 17.7524 10.8022 17.7524 11.1977ZM19.5515 11.9138C19.947 11.9138 20.2676 11.5932 20.2676 11.1977C20.2676 10.8022 19.947 10.4815 19.5515 10.4815C19.156 10.4815 18.8353 10.8022 18.8353 11.1977C18.8353 11.5932 19.156 11.9138 19.5515 11.9138Z" fill="url(#paint0_linear_12_732)"/>
<path fill-rule="evenodd" clip-rule="evenodd" d="M27.3071 24.1791C26.5663 23.6882 25.5848 23.7732 24.9394 24.3842L24.7947 24.5212C23.5872 25.6644 21.6966 25.6644 20.4891 24.5212C19.8338 23.9009 18.808 23.9009 18.1528 24.5212C16.9453 25.6644 15.0547 25.6644 13.8472 24.5212C13.192 23.9009 12.1662 23.9009 11.5109 24.5212C10.3034 25.6644 8.41284 25.6644 7.20528 24.5212L7.06058 24.3842C6.41522 23.7732 5.43367 23.6882 4.69288 24.1791L3.11185 25.2269C2.78216 25.4454 2.33777 25.3553 2.11927 25.0256C1.90078 24.6959 1.99092 24.2515 2.32061 24.033L3.90164 22.9852C5.19809 22.126 6.91587 22.2748 8.04529 23.3441L8.19 23.4811C8.84521 24.1014 9.87102 24.1014 10.5262 23.4811C11.7338 22.3378 13.6243 22.3378 14.8319 23.4811C15.4871 24.1014 16.5129 24.1014 17.1681 23.4811C18.3757 22.3378 20.2662 22.3378 21.4738 23.4811C22.129 24.1014 23.1548 24.1014 23.81 23.4811L23.9547 23.3441C25.0841 22.2748 26.8019 22.126 28.0984 22.9852L29.6794 24.033C30.0091 24.2515 30.0992 24.6959 29.8807 25.0256C29.6622 25.3553 29.2178 25.4454 28.8882 25.2269L27.3071 24.1791Z" fill="url(#paint1_linear_12_732)"/>
<path fill-rule="evenodd" clip-rule="evenodd" d="M27.3071 27.9521C26.5663 27.4611 25.5848 27.5461 24.9394 28.1571L24.7947 28.2941C23.5872 29.4374 21.6966 29.4374 20.4891 28.2941C19.8338 27.6738 18.808 27.6738 18.1528 28.2941C16.9453 29.4374 15.0547 29.4374 13.8472 28.2941C13.192 27.6738 12.1662 27.6738 11.5109 28.2941C10.3034 29.4374 8.41284 29.4374 7.20528 28.2941L7.06058 28.1571C6.41522 27.5461 5.43367 27.4611 4.69288 27.9521L3.11185 28.9999C2.78216 29.2183 2.33777 29.1282 2.11927 28.7985C1.90078 28.4688 1.99092 28.0244 2.32061 27.8059L3.90164 26.7581C5.19809 25.899 6.91587 26.0477 8.04529 27.117L8.19 27.254C8.84521 27.8743 9.87102 27.8743 10.5262 27.254C11.7338 26.1108 13.6243 26.1108 14.8319 27.254C15.4871 27.8743 16.5129 27.8743 17.1681 27.254C18.3757 26.1108 20.2662 26.1108 21.4738 27.254C22.129 27.8743 23.1548 27.8743 23.81 27.254L23.9547 27.117C25.0841 26.0477 26.8019 25.899 28.0984 26.7581L29.6794 27.8059C30.0091 28.0244 30.0992 28.4688 29.8807 28.7985C29.6622 29.1282 29.2178 29.2183 28.8882 28.9999L27.3071 27.9521Z" fill="url(#paint2_linear_12_732)"/>
<path d="M14.6755 17.8004C14.6755 18.1959 14.3548 18.5165 13.9593 18.5165C13.5638 18.5165 13.2432 18.1959 13.2432 17.8004C13.2432 17.4049 13.5638 17.0842 13.9593 17.0842C14.3548 17.0842 14.6755 17.4049 14.6755 17.8004Z" fill="url(#paint3_linear_12_732)"/>
<path d="M18.7628 17.8004C18.7628 18.1959 18.4421 18.5165 18.0466 18.5165C17.6511 18.5165 17.3305 18.1959 17.3305 17.8004C17.3305 17.4049 17.6511 17.0842 18.0466 17.0842C18.4421 17.0842 18.7628 17.4049 18.7628 17.8004Z" fill="url(#paint4_linear_12_732)"/>
<defs>
<linearGradient id="paint0_linear_12_732" x1="16.0057" y1="2.84839" x2="16.0083" y2="29.1957" gradientUnits="userSpaceOnUse">
<stop stop-color="#0180FD"/>
<stop offset="1" stop-color="#1924BA"/>
</linearGradient>
<linearGradient id="paint1_linear_12_732" x1="15.9936" y1="2.87696" x2="15.9936" y2="29.1383" gradientUnits="userSpaceOnUse">
<stop stop-color="#0180FD"/>
<stop offset="1" stop-color="#1924BA"/>
</linearGradient>
<linearGradient id="paint2_linear_12_732" x1="15.9936" y1="2.6408" x2="16" y2="29.1516" gradientUnits="userSpaceOnUse">
<stop stop-color="#0180FD"/>
<stop offset="1" stop-color="#1924BA"/>
</linearGradient>
<linearGradient id="paint3_linear_12_732" x1="16.0074" y1="2.87709" x2="16.0074" y2="29.3748" gradientUnits="userSpaceOnUse">
<stop stop-color="#0180FD"/>
<stop offset="1" stop-color="#1924BA"/>
</linearGradient>
<linearGradient id="paint4_linear_12_732" x1="16.0074" y1="2.87709" x2="16.0074" y2="29.3748" gradientUnits="userSpaceOnUse">
<stop stop-color="#0180FD"/>
<stop offset="1" stop-color="#1924BA"/>
</linearGradient>
</defs>
</svg>
