<svg width="32" height="32" viewBox="0 0 32 32" fill="none" xmlns="http://www.w3.org/2000/svg">
<path fill-rule="evenodd" clip-rule="evenodd" d="M4.05074 9.22388C4.45768 9.22388 4.78758 9.55377 4.78758 9.96072V16.1873C6.80523 16.2612 8.51408 16.6585 9.76044 17.6157C11.035 18.5947 11.7086 20.063 11.8468 22.0176C11.8648 22.2718 11.8737 22.5343 11.8737 22.8049C11.8737 23.2119 11.5438 23.5418 11.1368 23.5418C10.7299 23.5418 10.4 23.2119 10.4 22.8049C10.4 22.7518 10.3996 22.6993 10.3989 22.6473C10.37 20.6735 9.79573 19.501 8.86277 18.7845C7.97402 18.1019 6.64077 17.7362 4.78758 17.6621V23.1651V23.8614C4.78758 24.2683 4.45768 24.5982 4.05074 24.5982C3.64379 24.5982 3.31389 24.2683 3.31389 23.8614V23.3101V9.96072C3.31389 9.55377 3.64379 9.22388 4.05074 9.22388Z" fill="url(#paint0_linear_12_655)"/>
<path d="M4.78758 23.1651H9.14271C9.38041 23.1651 9.61389 23.1023 9.81953 22.9831L10.3989 22.6473C10.37 20.6735 9.79573 19.501 8.86277 18.7845C7.97402 18.1019 6.64077 17.7362 4.78758 17.6621V23.1651Z" fill="url(#paint1_linear_12_655)"/>
<path fill-rule="evenodd" clip-rule="evenodd" d="M11.8468 22.0176C11.516 22.0726 11.193 22.1869 10.8941 22.3601L10.3989 22.6473C10.3996 22.6993 10.4 22.7518 10.4 22.8049C10.4 23.2119 10.7299 23.5418 11.1368 23.5418C11.5438 23.5418 11.8737 23.2119 11.8737 22.8049C11.8737 22.5343 11.8648 22.2718 11.8468 22.0176ZM4.78758 23.1651H4.07806C3.80824 23.1651 3.55043 23.2165 3.31389 23.3101V23.8614C3.31389 24.2683 3.64379 24.5982 4.05074 24.5982C4.45768 24.5982 4.78758 24.2683 4.78758 23.8614V23.1651Z" fill="url(#paint2_linear_12_655)"/>
<path fill-rule="evenodd" clip-rule="evenodd" d="M14.9174 23.0028L13.6525 22.319C13.0924 22.0163 12.4564 21.9163 11.8468 22.0176C11.8648 22.2718 11.8737 22.5343 11.8737 22.8049C11.8737 23.2119 11.5438 23.5418 11.1368 23.5418C10.7299 23.5418 10.4 23.2119 10.4 22.8049C10.4 22.7518 10.3996 22.6993 10.3989 22.6473L9.81953 22.9831C9.61389 23.1023 9.38041 23.1651 9.14271 23.1651H4.78758V23.8614C4.78758 24.2683 4.45768 24.5982 4.05074 24.5982C3.64379 24.5982 3.31389 24.2683 3.31389 23.8614V23.3101C2.54434 23.6146 2 24.3653 2 25.2431C2 26.3908 2.93038 27.3212 4.07806 27.3212H9.17285C9.67621 27.3212 10.1704 27.1866 10.6043 26.9314L11.6267 26.33C12.0364 26.089 12.5426 26.0813 12.9594 26.3097L14.1716 26.9739C14.5875 27.2018 15.054 27.3212 15.5282 27.3212H27.9219C29.0696 27.3212 30 26.3908 30 25.2431C30 24.0955 29.0696 23.1651 27.9219 23.1651H15.5591C15.3351 23.1651 15.1145 23.1093 14.9174 23.0028ZM12.9517 23.6154C12.5387 23.3922 12.0394 23.3996 11.6332 23.6351L10.5586 24.258C10.1284 24.5074 9.63998 24.6388 9.14271 24.6388H4.07806C3.74427 24.6388 3.47368 24.9094 3.47368 25.2431C3.47368 25.5769 3.74427 25.8475 4.07806 25.8475H9.17285C9.41346 25.8475 9.64969 25.7832 9.85708 25.6612L10.8795 25.0598C11.7366 24.5556 12.7956 24.5395 13.6676 25.0173L14.8797 25.6815C15.0785 25.7904 15.3015 25.8475 15.5282 25.8475H27.9219C28.2557 25.8475 28.5263 25.5769 28.5263 25.2431C28.5263 24.9094 28.2557 24.6388 27.9219 24.6388H15.5591C15.0904 24.6388 14.629 24.5221 14.2167 24.2992L12.9517 23.6154Z" fill="url(#paint3_linear_12_655)"/>
<path fill-rule="evenodd" clip-rule="evenodd" d="M9.63623 6.88924C9.63623 5.6684 10.6259 4.67871 11.8468 4.67871H12.7368C13.9575 4.67871 14.9473 5.6682 14.9473 6.88912V10.4261C14.9473 10.6549 15.0686 11.0588 15.4356 11.5784C15.7914 12.0823 16.3383 12.6366 17.0768 13.1558C18.5499 14.1915 20.7491 15.0618 23.5935 15.1205C25.7443 15.1649 27.2412 15.6939 28.2124 16.5867C29.1927 17.4878 29.5268 18.6566 29.5642 19.7374C29.6012 20.8083 29.3513 21.8457 29.1067 22.5939C28.9828 22.9726 28.8567 23.288 28.7608 23.5104C28.7128 23.6218 28.6721 23.7104 28.6427 23.7726C28.628 23.8036 28.6161 23.8281 28.6075 23.8456C28.6032 23.8544 28.5997 23.8613 28.5971 23.8665L28.5939 23.8729L28.5924 23.8759C28.5922 23.8762 28.592 23.8765 27.9356 23.5419L28.592 23.8765C28.4072 24.2391 27.9635 24.3832 27.6009 24.1983C27.2387 24.0136 27.0945 23.5705 27.2787 23.2081L27.2789 23.2077C27.279 23.2075 27.279 23.2074 27.2791 23.2072L27.2852 23.195C27.2906 23.184 27.2992 23.1663 27.3106 23.1423C27.3333 23.0943 27.3669 23.0212 27.4076 22.9268C27.4893 22.7375 27.5985 22.4644 27.706 22.1359C27.9238 21.4696 28.12 20.6175 28.0914 19.7883C28.063 18.969 27.8196 18.2273 27.2151 17.6716C26.6017 17.1078 25.5067 16.634 23.5631 16.5939C20.4304 16.5293 17.9458 15.5682 16.2292 14.3613C15.3728 13.7592 14.6985 13.0894 14.2318 12.4284C13.7761 11.7832 13.4736 11.0815 13.4736 10.4261V6.88912C13.4736 6.48225 13.1438 6.1524 12.7368 6.1524H11.8468C11.4398 6.1524 11.1099 6.48229 11.1099 6.88924V7.61366C11.1099 8.02061 10.78 8.3505 10.3731 8.3505C9.96613 8.3505 9.63623 8.02061 9.63623 7.61366V6.88924Z" fill="url(#paint4_linear_12_655)"/>
<path fill-rule="evenodd" clip-rule="evenodd" d="M15.2283 11.5326C15.3497 11.921 15.1332 12.3343 14.7448 12.4557L12.3869 13.1925C11.9985 13.3139 11.5852 13.0974 11.4638 12.709C11.3424 12.3206 11.5589 11.9073 11.9473 11.7859L14.3052 11.0491C14.6936 10.9277 15.1069 11.1442 15.2283 11.5326Z" fill="url(#paint5_linear_12_655)"/>
<path fill-rule="evenodd" clip-rule="evenodd" d="M17.2915 13.7431C17.4128 14.1315 17.1964 14.5448 16.8079 14.6662L14.45 15.403C14.0616 15.5244 13.6483 15.3079 13.527 14.9195C13.4056 14.5311 13.6221 14.1178 14.0105 13.9964L16.3684 13.2596C16.7568 13.1382 17.1701 13.3547 17.2915 13.7431Z" fill="url(#paint6_linear_12_655)"/>
<path fill-rule="evenodd" clip-rule="evenodd" d="M20.8283 15.2168C20.9497 15.6052 20.7332 16.0185 20.3448 16.1399L17.9869 16.8767C17.5985 16.9981 17.1852 16.7816 17.0638 16.3932C16.9424 16.0048 17.1589 15.5915 17.5473 15.4701L19.9052 14.7333C20.2936 14.6119 20.7069 14.8284 20.8283 15.2168Z" fill="url(#paint7_linear_12_655)"/>
<path fill-rule="evenodd" clip-rule="evenodd" d="M4.26453 8.4251C4.07478 8.4251 3.92095 8.57893 3.92095 8.76868C3.92095 8.95844 4.07478 9.11227 4.26453 9.11227H10.3745C10.5643 9.11227 10.7181 8.95844 10.7181 8.76868C10.7181 8.57893 10.5643 8.4251 10.3745 8.4251H4.26453ZM2.44727 8.76868C2.44727 7.76503 3.26089 6.95142 4.26453 6.95142H10.3745C11.3782 6.95142 12.1918 7.76503 12.1918 8.76868C12.1918 9.77233 11.3782 10.586 10.3745 10.586H4.26453C3.26088 10.586 2.44727 9.77233 2.44727 8.76868Z" fill="url(#paint8_linear_12_655)"/>
<path d="M3.92095 8.76868C3.92095 8.57893 4.07478 8.4251 4.26453 8.4251H10.3745C10.5643 8.4251 10.7181 8.57893 10.7181 8.76868C10.7181 8.95844 10.5643 9.11227 10.3745 9.11227H4.26453C4.07478 9.11227 3.92095 8.95844 3.92095 8.76868Z" fill="url(#paint9_linear_12_655)"/>
<defs>
<linearGradient id="paint0_linear_12_655" x1="16" y1="4.75965" x2="16" y2="27.3212" gradientUnits="userSpaceOnUse">
<stop stop-color="#0180FD"/>
<stop offset="1" stop-color="#1924BA"/>
</linearGradient>
<linearGradient id="paint1_linear_12_655" x1="16" y1="4.75965" x2="16" y2="27.3212" gradientUnits="userSpaceOnUse">
<stop stop-color="#0180FD"/>
<stop offset="1" stop-color="#1924BA"/>
</linearGradient>
<linearGradient id="paint2_linear_12_655" x1="16" y1="4.75965" x2="16" y2="27.3212" gradientUnits="userSpaceOnUse">
<stop stop-color="#0180FD"/>
<stop offset="1" stop-color="#1924BA"/>
</linearGradient>
<linearGradient id="paint3_linear_12_655" x1="16" y1="4.75965" x2="16" y2="27.3212" gradientUnits="userSpaceOnUse">
<stop stop-color="#0180FD"/>
<stop offset="1" stop-color="#1924BA"/>
</linearGradient>
<linearGradient id="paint4_linear_12_655" x1="19.602" y1="4.67871" x2="19.6092" y2="27.0198" gradientUnits="userSpaceOnUse">
<stop stop-color="#0180FD"/>
<stop offset="1" stop-color="#1924BA"/>
</linearGradient>
<linearGradient id="paint5_linear_12_655" x1="19.602" y1="4.67871" x2="19.6092" y2="27.0198" gradientUnits="userSpaceOnUse">
<stop stop-color="#0180FD"/>
<stop offset="1" stop-color="#1924BA"/>
</linearGradient>
<linearGradient id="paint6_linear_12_655" x1="19.602" y1="4.67871" x2="19.6092" y2="27.0198" gradientUnits="userSpaceOnUse">
<stop stop-color="#0180FD"/>
<stop offset="1" stop-color="#1924BA"/>
</linearGradient>
<linearGradient id="paint7_linear_12_655" x1="19.602" y1="4.67871" x2="19.6092" y2="27.0198" gradientUnits="userSpaceOnUse">
<stop stop-color="#0180FD"/>
<stop offset="1" stop-color="#1924BA"/>
</linearGradient>
<linearGradient id="paint8_linear_12_655" x1="7.32021" y1="4.43556" x2="7.32021" y2="27.1303" gradientUnits="userSpaceOnUse">
<stop stop-color="#0180FD"/>
<stop offset="1" stop-color="#1924BA"/>
</linearGradient>
<linearGradient id="paint9_linear_12_655" x1="7.32021" y1="4.43556" x2="7.32021" y2="27.1303" gradientUnits="userSpaceOnUse">
<stop stop-color="#0180FD"/>
<stop offset="1" stop-color="#1924BA"/>
</linearGradient>
</defs>
</svg>
