<svg width="32" height="32" viewBox="0 0 32 32" fill="none" xmlns="http://www.w3.org/2000/svg">
<path fill-rule="evenodd" clip-rule="evenodd" d="M11.9307 21.2293C12.2505 21.4878 12.3002 21.9567 12.0417 22.2766L10.8514 23.7491H20.9937L19.8034 22.2766C19.5449 21.9567 19.5946 21.4878 19.9144 21.2293C20.2343 20.9707 20.7032 21.0204 20.9617 21.3403L25.2917 26.697L27.1302 28.7597C27.4039 29.0668 27.3768 29.5375 27.0698 29.8112C26.7628 30.0848 26.292 30.0578 26.0184 29.7507L24.39 27.9238H7.47452L6.0021 29.7263C5.74191 30.0449 5.27279 30.0921 4.95427 29.832C4.63575 29.5718 4.58846 29.1027 4.84864 28.7841L6.54334 26.7095L10.8834 21.3403C11.1419 21.0204 11.6108 20.9707 11.9307 21.2293ZM8.68076 26.4344H23.1643L22.1976 25.2384H9.6475L8.68076 26.4344Z" fill="url(#paint0_linear_12_721)"/>
<path fill-rule="evenodd" clip-rule="evenodd" d="M5.76709 6.39467C5.76709 3.96756 7.73465 2 10.1618 2H21.8417C24.2688 2 26.2364 3.96756 26.2364 6.39467V18.0746C26.2364 20.5017 24.2688 22.4693 21.8417 22.4693H10.1618C7.73465 22.4693 5.76709 20.5017 5.76709 18.0746V6.39467ZM10.1618 3.48936C8.5572 3.48936 7.25645 4.79011 7.25645 6.39467V18.0746C7.25645 19.6792 8.5572 20.9799 10.1618 20.9799H21.8417C23.4463 20.9799 24.747 19.6792 24.747 18.0746V6.39467C24.747 4.79011 23.4463 3.48936 21.8417 3.48936H10.1618Z" fill="url(#paint1_linear_12_721)"/>
<path fill-rule="evenodd" clip-rule="evenodd" d="M11.6156 5.2915C10.1964 5.2915 9.0459 6.44199 9.0459 7.86118V12.6062C9.0459 14.0254 10.1964 15.1758 11.6156 15.1758H20.3755C21.7947 15.1758 22.9452 14.0254 22.9452 12.6062V7.86118C22.9452 6.44199 21.7947 5.2915 20.3755 5.2915H11.6156ZM17.6982 8.8417C18.0384 8.61067 18.127 8.14755 17.8959 7.8073C17.6649 7.46704 17.2018 7.37851 16.8615 7.60954L11.934 10.9554C11.5938 11.1864 11.5052 11.6495 11.7363 11.9898C11.9673 12.33 12.4304 12.4186 12.7707 12.1875L17.6982 8.8417ZM20.0864 9.83445C20.4206 9.59471 20.4971 9.12946 20.2574 8.79529C20.0177 8.46111 19.5524 8.38455 19.2182 8.62428L15.0208 11.6355C14.6866 11.8753 14.61 12.3405 14.8498 12.6747C15.0895 13.0089 15.5547 13.0854 15.8889 12.8457L20.0864 9.83445Z" fill="url(#paint2_linear_12_721)"/>
<path fill-rule="evenodd" clip-rule="evenodd" d="M11.0861 17.4894C10.7571 17.4894 10.4903 17.7561 10.4903 18.0851C10.4903 18.4141 10.7571 18.6809 11.0861 18.6809C11.4151 18.6809 11.6818 18.4141 11.6818 18.0851C11.6818 17.7561 11.4151 17.4894 11.0861 17.4894ZM9.00098 18.0851C9.00098 16.9335 9.93451 16 11.0861 16C12.2377 16 13.1712 16.9335 13.1712 18.0851C13.1712 19.2367 12.2377 20.1702 11.0861 20.1702C9.93451 20.1702 9.00098 19.2367 9.00098 18.0851Z" fill="url(#paint3_linear_12_721)"/>
<path fill-rule="evenodd" clip-rule="evenodd" d="M20.9159 17.4894C20.5869 17.4894 20.3201 17.7561 20.3201 18.0851C20.3201 18.4141 20.5869 18.6809 20.9159 18.6809C21.2449 18.6809 21.5116 18.4141 21.5116 18.0851C21.5116 17.7561 21.2449 17.4894 20.9159 17.4894ZM18.8308 18.0851C18.8308 16.9335 19.7643 16 20.9159 16C22.0674 16 23.001 16.9335 23.001 18.0851C23.001 19.2367 22.0674 20.1702 20.9159 20.1702C19.7643 20.1702 18.8308 19.2367 18.8308 18.0851Z" fill="url(#paint4_linear_12_721)"/>
<path d="M11.0861 17.4894C10.7571 17.4894 10.4903 17.7561 10.4903 18.0851C10.4903 18.4141 10.7571 18.6809 11.0861 18.6809C11.4151 18.6809 11.6818 18.4141 11.6818 18.0851C11.6818 17.7561 11.4151 17.4894 11.0861 17.4894Z" fill="url(#paint5_linear_12_721)"/>
<path d="M20.9159 17.4894C20.5869 17.4894 20.3201 17.7561 20.3201 18.0851C20.3201 18.4141 20.5869 18.6809 20.9159 18.6809C21.2449 18.6809 21.5116 18.4141 21.5116 18.0851C21.5116 17.7561 21.2449 17.4894 20.9159 17.4894Z" fill="url(#paint6_linear_12_721)"/>
<defs>
<linearGradient id="paint0_linear_12_721" x1="15.9998" y1="2.14888" x2="15.9998" y2="29.9999" gradientUnits="userSpaceOnUse">
<stop stop-color="#0180FD"/>
<stop offset="1" stop-color="#1924BA"/>
</linearGradient>
<linearGradient id="paint1_linear_12_721" x1="16.0017" y1="2" x2="15.999" y2="30.0075" gradientUnits="userSpaceOnUse">
<stop stop-color="#0180FD"/>
<stop offset="1" stop-color="#1924BA"/>
</linearGradient>
<linearGradient id="paint2_linear_12_721" x1="16.0012" y1="2.5064" x2="16.0012" y2="29.7617" gradientUnits="userSpaceOnUse">
<stop stop-color="#0180FD"/>
<stop offset="1" stop-color="#1924BA"/>
</linearGradient>
<linearGradient id="paint3_linear_12_721" x1="16.001" y1="2.02234" x2="16.001" y2="29.7617" gradientUnits="userSpaceOnUse">
<stop stop-color="#0180FD"/>
<stop offset="1" stop-color="#1924BA"/>
</linearGradient>
<linearGradient id="paint4_linear_12_721" x1="16.001" y1="2.02234" x2="16.001" y2="29.7617" gradientUnits="userSpaceOnUse">
<stop stop-color="#0180FD"/>
<stop offset="1" stop-color="#1924BA"/>
</linearGradient>
<linearGradient id="paint5_linear_12_721" x1="16.001" y1="2.02234" x2="16.001" y2="29.7617" gradientUnits="userSpaceOnUse">
<stop stop-color="#0180FD"/>
<stop offset="1" stop-color="#1924BA"/>
</linearGradient>
<linearGradient id="paint6_linear_12_721" x1="16.001" y1="2.02234" x2="16.001" y2="29.7617" gradientUnits="userSpaceOnUse">
<stop stop-color="#0180FD"/>
<stop offset="1" stop-color="#1924BA"/>
</linearGradient>
</defs>
</svg>
