<svg width="459" height="98" viewBox="0 0 459 98" fill="none" xmlns="http://www.w3.org/2000/svg">
<path d="M133.72 90.856V25.288H142.264V36.904C145.624 29.416 152.44 24.328 162.712 24.328C176.44 24.328 185.08 34.6 185.08 49.192C185.08 63.688 176.44 73.96 162.712 73.96C152.152 73.96 145.432 68.68 142.264 61.384V90.856H133.72ZM142.456 49.192C142.456 60.808 150.616 66.664 159.928 66.664C169.24 66.664 176.632 61.096 176.632 49.192C176.632 37.192 169.24 31.624 159.928 31.624C150.616 31.624 142.456 37.384 142.456 49.192ZM190.001 73V65.704H203.345V9.736H193.361V2.44H206.897C210.065 2.44 211.889 4.07199 211.889 7.23999V65.704H225.233V73H190.001ZM232.581 59.752C232.581 52.168 237.189 46.888 248.517 45.832L267.237 44.008C266.853 35.368 263.013 31.24 254.373 31.24C247.749 31.24 242.853 34.312 242.085 42.28H233.637C234.693 31.432 242.085 24.328 254.565 24.328C268.389 24.328 275.781 32.872 275.781 45.736V65.704H282.789V73H274.053C270.405 73 268.293 70.888 268.293 67.24V61.192C266.085 67.912 260.517 73.96 248.709 73.96C234.693 73.96 232.581 64.744 232.581 59.752ZM241.029 58.696C241.029 64.168 244.581 66.952 250.053 66.952C260.421 66.952 267.237 59.656 267.237 50.056L249.957 51.88C244.101 52.456 241.029 54.088 241.029 58.696ZM291.689 73V25.288H300.233V38.248C302.825 29.704 309.449 24.328 320.009 24.328C330.953 24.328 337.481 31.432 337.481 44.296V73H328.937V45.256C328.937 35.464 325.193 31.624 317.033 31.624C306.665 31.624 300.233 39.88 300.233 52.744V73H291.689Z" fill="#242DFF"/>
<path d="M349.439 73V25.288H357.983V38.248C360.575 29.704 367.199 24.328 377.759 24.328C388.703 24.328 395.231 31.432 395.231 44.296V73H386.687V45.256C386.687 35.464 382.943 31.624 374.783 31.624C364.415 31.624 357.983 39.88 357.983 52.744V73H349.439Z" fill="#B3A7FF"/>
<path d="M407.189 73V25.288H415.733V38.248C418.325 29.704 424.949 24.328 435.509 24.328C446.453 24.328 452.981 31.432 452.981 44.296V73H444.437V45.256C444.437 35.464 440.693 31.624 432.533 31.624C422.165 31.624 415.733 39.88 415.733 52.744V73H407.189Z" fill="#E0DBFF"/>
<path d="M0 37.3333C0 20.5807 13.5807 7 30.3333 7H91V67.6667H30.3333C13.5807 67.6667 0 54.086 0 37.3333Z" fill="#C8CAFF"/>
<path d="M0 70.7C0 45.571 20.371 25.2 45.5 25.2C70.629 25.2 91 45.571 91 70.7V85.8666H0V70.7Z" fill="#242DFF" fill-opacity="0.85"/>
<rect x="46" y="20.9996" width="40" height="40" rx="20" fill="#F5F3FF"/>
</svg>
