<svg width="738" height="813" viewBox="0 0 738 813" fill="none" xmlns="http://www.w3.org/2000/svg">
<path d="M228 50V184H309.902V106.5C309.902 89.9315 323.333 76.5 339.902 76.5H395.89C412.459 76.5 425.89 89.9315 425.89 106.5V184H513V50C513 25.1472 492.853 5 468 5H273C248.147 5 228 25.1472 228 50Z" fill="white"/>
<path d="M71.8423 203C71.8423 175.386 94.228 153 121.842 153H624C651.614 153 674 175.386 674 203V210.612C674 233.253 658.787 253.068 636.915 258.916L420.448 316.793C389.31 325.118 356.532 325.118 325.394 316.793L108.927 258.915C87.0553 253.068 71.8423 233.253 71.8423 210.612V203Z" fill="white"/>
<path d="M63 480.631C63 405.041 63 367.247 87.5101 349.587C87.9753 349.252 88.4454 348.923 88.9202 348.602C113.935 331.664 149.932 344.855 221.926 371.236V371.236C294.032 397.658 330.085 410.869 367.121 411.467C369.923 411.512 372.726 411.503 375.528 411.441C412.559 410.617 448.053 397.364 519.039 370.859V370.859C587.324 345.363 621.467 332.615 646.064 347.848C647.811 348.93 649.501 350.102 651.125 351.361C674 369.076 674 405.521 674 478.41V695C674 750.626 674 778.439 656.719 795.719C639.439 813 611.626 813 556 813H181C125.374 813 97.5614 813 80.2807 795.719C63 778.439 63 750.626 63 695V480.631Z" fill="white"/>
</svg>
